<svg width="128" height="128" viewBox="0 0 128 128" fill="none" xmlns="http://www.w3.org/2000/svg">
<circle cx="64" cy="64" r="64" fill="#448AFF"/>
<path d="M58.1154 74.6462L56.9615 29H69.9423L68.7885 74.6462H58.1154ZM63.5 98C62.2179 98 61 97.7427 59.8462 97.228C58.6923 96.649 57.7628 95.8126 57.0577 94.7189C56.3526 93.5608 56 92.1776 56 90.5692C56 88.9608 56.3526 87.6098 57.0577 86.5161C57.7628 85.4224 58.6923 84.586 59.8462 84.007C61 83.428 62.2179 83.1385 63.5 83.1385C65.4872 83.1385 67.2179 83.7818 68.6923 85.0685C70.2308 86.3552 71 88.1888 71 90.5692C71 92.1776 70.6154 93.5608 69.8462 94.7189C69.141 95.8126 68.2115 96.649 67.0577 97.228C65.9679 97.7427 64.7821 98 63.5 98Z" fill="white"/>
</svg>
