<svg width="570" height="485" viewBox="0 0 570 485" fill="none" xmlns="http://www.w3.org/2000/svg">
<path fill-rule="evenodd" clip-rule="evenodd" d="M570 242.5C570 376.429 442.401 485 285 485C127.599 485 0 376.429 0 242.5C0 108.571 127.599 0 285 0C442.401 0 570 108.571 570 242.5ZM454.333 389.101C426.75 411.053 392.752 427.902 354.167 437.189L415.682 308.585L454.333 389.101ZM497.327 343.652C518.545 313.271 530.417 278.422 530.417 242.5C530.417 206.569 518.539 171.713 497.312 141.326L447.292 242.5L497.327 343.652ZM383.958 242.5L285 445.246L186.042 242.5L285 39.7541L383.958 242.5ZM138.542 275.601V405.202C161.308 419.333 187.318 430.325 215.833 437.189L138.542 275.601ZM454.36 95.9209L415.69 176.433L354.167 47.8115C392.765 57.1016 426.773 73.9578 454.36 95.9209ZM215.833 47.8115L138.542 209.399V79.7979C161.308 65.6674 187.318 54.6747 215.833 47.8115ZM79.1667 132.562C53.8919 164.92 39.5833 203.063 39.5833 242.5C39.5833 281.937 53.8919 320.08 79.1667 352.438V132.562Z" fill="#4051B5"/>
</svg>
