<svg width="90" height="90" viewBox="0 0 90 90" fill="none" xmlns="http://www.w3.org/2000/svg">
<g clip-path="url(#clip0_2007_28310)">
<path d="M78.75 52.05V46.575C78.75 44.8125 78.15 43.125 77.025 41.775L62.25 24.075C60.825 22.35 58.725 21.375 56.475 21.375H11.25C7.125 21.375 3.75 24.75 3.75 28.875V58.875C3.75 63 7.125 66.375 11.25 66.375H11.925C13.5 70.725 17.625 73.875 22.5 73.875C27.375 73.875 31.5 70.725 33.075 66.375H64.4625C66 70.725 70.125 73.875 75.0375 73.875C81.2625 73.875 86.2875 68.85 86.2875 62.625C86.25 57.75 83.1 53.625 78.75 52.05ZM69 43.875H60V33.075L69 43.875ZM22.5 66.375C20.4375 66.375 18.75 64.6875 18.75 62.625C18.75 60.5625 20.4375 58.875 22.5 58.875C24.5625 58.875 26.25 60.5625 26.25 62.625C26.25 64.6875 24.5625 66.375 22.5 66.375ZM33.75 58.875V51.375H45V43.875H33.75V28.875H52.5V58.875H33.75ZM75 66.375C72.9375 66.375 71.25 64.6875 71.25 62.625C71.25 60.5625 72.9375 58.875 75 58.875C77.0625 58.875 78.75 60.5625 78.75 62.625C78.75 64.6875 77.0625 66.375 75 66.375Z" fill="white"/>
<path d="M88.875 64.6875V52.5938C88.875 47.6232 84.8456 43.5938 79.875 43.5938H77.9062L74.8125 39.375V56.25L83.25 64.6875H88.875Z" fill="white"/>
<rect x="32.625" y="27" width="21.375" height="33.75" fill="white"/>
<path fill-rule="evenodd" clip-rule="evenodd" d="M47.25 41.0625C47.25 50.0716 38.4356 57.375 27.5625 57.375C16.6894 57.375 7.875 50.0716 7.875 41.0625C7.875 32.0534 16.6894 24.75 27.5625 24.75C38.4356 24.75 47.25 32.0534 47.25 41.0625ZM39.2598 50.9241C37.3545 52.4008 35.0059 53.5341 32.3405 54.1588L36.5898 45.5079L39.2598 50.9241ZM42.2299 47.8668C43.6955 45.8231 44.5156 43.4789 44.5156 41.0625C44.5156 38.6455 43.6951 36.3008 42.2288 34.2567L38.7734 41.0625L42.2299 47.8668ZM34.3984 41.0625L27.5625 54.7008L20.7266 41.0625L27.5625 27.4242L34.3984 41.0625ZM17.4453 43.2892V52.0072C19.018 52.9577 20.8147 53.6971 22.7845 54.1588L17.4453 43.2892ZM39.2617 31.2024L36.5904 36.6183L32.3405 27.9662C35.0068 28.5911 37.356 29.725 39.2617 31.2024ZM22.7845 27.9662L17.4453 38.8358V30.1178C19.018 29.1673 20.8147 28.4279 22.7845 27.9662ZM13.3438 33.6672C11.5978 35.8439 10.6094 38.4097 10.6094 41.0625C10.6094 43.7153 11.5978 46.2811 13.3438 48.4578V33.6672Z" fill="#448AFF"/>
<circle cx="22.5" cy="63" r="7.75" stroke="white" stroke-width="7"/>
</g>
<defs>
<clipPath id="clip0_2007_28310">
<rect width="90" height="90" fill="white"/>
</clipPath>
</defs>
</svg>
