<svg width="56" height="56" viewBox="0 0 56 56" fill="none" xmlns="http://www.w3.org/2000/svg">
<path d="M28 16C21.376 16 16 21.376 16 28C16 34.624 21.376 40 28 40C34.624 40 40 34.624 40 28C40 21.376 34.624 16 28 16ZM22.084 35.536C22.6 34.456 25.744 33.4 28 33.4C30.256 33.4 33.412 34.456 33.916 35.536C32.284 36.832 30.232 37.6 28 37.6C25.768 37.6 23.716 36.832 22.084 35.536ZM35.632 33.796C33.916 31.708 29.752 31 28 31C26.248 31 22.084 31.708 20.368 33.796C19.144 32.188 18.4 30.184 18.4 28C18.4 22.708 22.708 18.4 28 18.4C33.292 18.4 37.6 22.708 37.6 28C37.6 30.184 36.856 32.188 35.632 33.796ZM28 20.8C25.672 20.8 23.8 22.672 23.8 25C23.8 27.328 25.672 29.2 28 29.2C30.328 29.2 32.2 27.328 32.2 25C32.2 22.672 30.328 20.8 28 20.8ZM28 26.8C27.004 26.8 26.2 25.996 26.2 25C26.2 24.004 27.004 23.2 28 23.2C28.996 23.2 29.8 24.004 29.8 25C29.8 25.996 28.996 26.8 28 26.8Z" fill="#448AFF"/>
</svg>
