<svg width="192" height="35" viewBox="0 0 192 35" fill="none" xmlns="http://www.w3.org/2000/svg">
<path fill-rule="evenodd" clip-rule="evenodd" d="M39 17.5C39 26.0604 30.7173 33 20.5 33C10.2827 33 2 26.0604 2 17.5C2 8.93959 10.2827 2 20.5 2C30.7173 2 39 8.93959 39 17.5ZM31.4918 26.8704C29.7013 28.2735 27.4944 29.3504 24.9898 29.944L28.9828 21.724L31.4918 26.8704ZM34.2827 23.9654C35.6599 22.0235 36.4306 19.796 36.4306 17.5C36.4306 15.2034 35.6596 12.9754 34.2816 11.0332L31.0347 17.5L34.2827 23.9654ZM26.9236 17.5L20.5 30.459L14.0764 17.5L20.5 4.54098L26.9236 17.5ZM10.9931 19.6158V27.8995C12.4709 28.8027 14.1593 29.5053 16.0102 29.944L10.9931 19.6158ZM31.4936 8.13102L28.9834 13.2772L24.9898 5.05599C27.4953 5.64979 29.7028 6.7272 31.4936 8.13102ZM16.0102 5.05599L10.9931 15.3842V7.10048C12.4709 6.1973 14.1593 5.49467 16.0102 5.05599ZM7.13889 10.4731C5.49825 12.5413 4.56944 14.9793 4.56944 17.5C4.56944 20.0207 5.49825 22.4587 7.13889 24.5269V10.4731Z" fill="#3F51B5"/>
<path d="M176.88 26.377V21.9632C177.214 21.9632 177.483 21.8742 177.686 21.6963C177.889 21.5183 178.05 21.2869 178.169 21.0022C178.289 20.7174 178.378 20.403 178.438 20.0589C178.51 19.7029 178.569 19.3588 178.617 19.0266C178.677 18.4927 178.713 17.9528 178.725 17.4071C178.748 16.8494 178.76 16.3867 178.76 16.0188C178.772 15.7222 178.778 15.4256 178.778 15.129C178.778 14.8205 178.778 14.512 178.778 14.2035H185.782V21.9632H187V26.377H185.191V23.5828H178.689V26.377H176.88ZM179.638 21.9632H183.919V15.8409H180.48C180.48 16.3036 180.474 16.8138 180.462 17.3715C180.45 17.9291 180.426 18.4571 180.39 18.9554C180.366 19.2402 180.337 19.5606 180.301 19.9165C180.265 20.2725 180.199 20.6284 180.104 20.9844C180.008 21.3403 179.853 21.6666 179.638 21.9632Z" fill="#1A1B21"/>
<path d="M171.416 23.6897C170.437 23.6897 169.607 23.4939 168.927 23.1023C168.246 22.6989 167.726 22.1353 167.368 21.4116C167.022 20.6878 166.849 19.8513 166.849 18.9021C166.849 17.941 167.022 17.1046 167.368 16.3927C167.726 15.6689 168.246 15.1053 168.927 14.7019C169.607 14.2866 170.443 14.079 171.434 14.079C172.414 14.079 173.244 14.2866 173.924 14.7019C174.605 15.1053 175.118 15.6689 175.465 16.3927C175.811 17.1164 175.984 17.9588 175.984 18.9199C175.984 19.8573 175.805 20.6878 175.447 21.4116C175.1 22.1353 174.587 22.6989 173.906 23.1023C173.238 23.4939 172.408 23.6897 171.416 23.6897ZM171.416 22.0523C172.061 22.0523 172.581 21.9099 172.975 21.6251C173.381 21.3404 173.679 20.9607 173.87 20.4861C174.062 20.0115 174.157 19.4894 174.157 18.9199C174.157 18.3504 174.062 17.8283 173.87 17.3537C173.679 16.8673 173.381 16.4816 172.975 16.1969C172.581 15.9003 172.061 15.7519 171.416 15.7519C170.784 15.7519 170.264 15.9003 169.858 16.1969C169.452 16.4816 169.153 16.8613 168.962 17.3359C168.783 17.8105 168.694 18.3385 168.694 18.9199C168.694 19.4894 168.783 20.0115 168.962 20.4861C169.153 20.9607 169.452 21.3404 169.858 21.6251C170.264 21.9099 170.784 22.0523 171.416 22.0523Z" fill="#1A1B21"/>
<path d="M156.255 23.6006V21.9632C156.506 21.9632 156.72 21.9098 156.9 21.803C157.091 21.6844 157.258 21.5183 157.401 21.3047C157.556 21.0674 157.676 20.7352 157.759 20.3081C157.843 19.8809 157.903 19.436 157.939 18.9732C157.986 18.4156 158.016 17.8639 158.028 17.3181C158.052 16.7723 158.07 16.2383 158.082 15.7163C158.106 15.1942 158.118 14.69 158.118 14.2035H164.942V23.5828H163.097V15.8409H159.873C159.861 16.2324 159.843 16.6418 159.819 17.0689C159.807 17.496 159.789 17.9232 159.766 18.3503C159.742 18.7656 159.712 19.1809 159.676 19.5961C159.652 20.0708 159.586 20.575 159.479 21.1089C159.383 21.6429 159.198 22.1234 158.924 22.5505C158.649 22.9658 158.309 23.2446 157.903 23.387C157.509 23.5294 156.959 23.6006 156.255 23.6006Z" fill="#1A1B21"/>
<path d="M150.705 23.6897C149.726 23.6897 148.896 23.4939 148.215 23.1023C147.535 22.6989 147.015 22.1353 146.657 21.4116C146.311 20.6878 146.137 19.8513 146.137 18.9021C146.137 17.941 146.311 17.1046 146.657 16.3927C147.015 15.6689 147.535 15.1053 148.215 14.7019C148.896 14.2866 149.732 14.079 150.723 14.079C151.702 14.079 152.532 14.2866 153.213 14.7019C153.894 15.1053 154.407 15.6689 154.753 16.3927C155.1 17.1164 155.273 17.9588 155.273 18.9199C155.273 19.8573 155.094 20.6878 154.735 21.4116C154.389 22.1353 153.876 22.6989 153.195 23.1023C152.526 23.4939 151.696 23.6897 150.705 23.6897ZM150.705 22.0523C151.35 22.0523 151.869 21.9099 152.264 21.6251C152.67 21.3404 152.968 20.9607 153.159 20.4861C153.35 20.0115 153.446 19.4894 153.446 18.9199C153.446 18.3504 153.35 17.8283 153.159 17.3537C152.968 16.8673 152.67 16.4816 152.264 16.1969C151.869 15.9003 151.35 15.7519 150.705 15.7519C150.072 15.7519 149.553 15.9003 149.147 16.1969C148.741 16.4816 148.442 16.8613 148.251 17.3359C148.072 17.8105 147.982 18.3385 147.982 18.9199C147.982 19.4894 148.072 20.0115 148.251 20.4861C148.442 20.9607 148.741 21.3404 149.147 21.6251C149.553 21.9099 150.072 22.0523 150.705 22.0523Z" fill="#1A1B21"/>
<path d="M134.491 23.5829L138.647 17.3003L134.617 11H136.927L139.847 15.8053L142.767 11H145.024L141.012 17.2469L145.167 23.5829H142.874L139.811 18.7597L136.695 23.5829H134.491Z" fill="#1A1B21"/>
<path d="M119.555 23.6006V21.9632C119.806 21.9632 120.021 21.9098 120.2 21.803C120.391 21.6844 120.558 21.5183 120.702 21.3047C120.857 21.0674 120.976 20.7352 121.06 20.3081C121.143 19.8809 121.203 19.436 121.239 18.9732C121.287 18.4156 121.317 17.8639 121.329 17.3181C121.352 16.7723 121.37 16.2383 121.382 15.7163C121.406 15.1942 121.418 14.69 121.418 14.2035H128.243V23.5828H126.398V15.8409H123.173C123.162 16.2324 123.144 16.6418 123.12 17.0689C123.108 17.496 123.09 17.9232 123.066 18.3503C123.042 18.7656 123.012 19.1809 122.976 19.5961C122.953 20.0708 122.887 20.575 122.779 21.1089C122.684 21.6429 122.499 22.1234 122.224 22.5505C121.949 22.9658 121.609 23.2446 121.203 23.387C120.809 23.5294 120.26 23.6006 119.555 23.6006Z" fill="#1A1B21"/>
<path d="M109.427 23.6006V21.9632C109.678 21.9632 109.893 21.9098 110.072 21.803C110.263 21.6844 110.43 21.5183 110.573 21.3047C110.729 21.0674 110.848 20.7352 110.932 20.3081C111.015 19.8809 111.075 19.436 111.111 18.9732C111.158 18.4156 111.188 17.8639 111.2 17.3181C111.224 16.7723 111.242 16.2383 111.254 15.7163C111.278 15.1942 111.29 14.69 111.29 14.2035H118.114V23.5828H116.269V15.8409H113.045C113.033 16.2324 113.015 16.6418 112.991 17.0689C112.98 17.496 112.962 17.9232 112.938 18.3503C112.914 18.7656 112.884 19.1809 112.848 19.5961C112.824 20.0708 112.759 20.575 112.651 21.1089C112.556 21.6429 112.37 22.1234 112.096 22.5505C111.821 22.9658 111.481 23.2446 111.075 23.387C110.681 23.5294 110.131 23.6006 109.427 23.6006Z" fill="#1A1B21"/>
<path d="M103.219 23.6897C102.801 23.6897 102.395 23.6363 102.001 23.5295C101.607 23.4108 101.254 23.2388 100.944 23.0134C100.633 22.7761 100.382 22.4854 100.191 22.1413C100.012 21.7853 99.9227 21.37 99.9227 20.8954C99.9227 20.3259 100.03 19.8573 100.245 19.4894C100.472 19.1098 100.771 18.8191 101.141 18.6174C101.511 18.4038 101.935 18.2555 102.413 18.1724C102.902 18.0775 103.41 18.03 103.935 18.03H106.246C106.246 17.5673 106.174 17.1639 106.031 16.8198C105.888 16.4639 105.661 16.191 105.35 16.0011C105.052 15.7994 104.652 15.6986 104.15 15.6986C103.852 15.6986 103.565 15.7342 103.29 15.8053C103.028 15.8647 102.801 15.9655 102.61 16.1079C102.419 16.2503 102.287 16.4401 102.216 16.6774H100.281C100.353 16.2266 100.514 15.8409 100.765 15.5206C101.015 15.1884 101.326 14.9155 101.696 14.7019C102.066 14.4883 102.46 14.3341 102.878 14.2392C103.308 14.1324 103.744 14.079 104.186 14.079C105.093 14.079 105.828 14.257 106.389 14.6129C106.962 14.9689 107.38 15.4791 107.643 16.1435C107.906 16.8079 108.037 17.597 108.037 18.5106V23.5829H106.443L106.371 22.426C106.097 22.7701 105.78 23.0371 105.422 23.2269C105.076 23.4049 104.711 23.5235 104.329 23.5829C103.947 23.6541 103.577 23.6897 103.219 23.6897ZM103.541 22.1413C104.09 22.1413 104.568 22.0523 104.974 21.8743C105.38 21.6845 105.691 21.4175 105.905 21.0734C106.132 20.7175 106.246 20.2963 106.246 19.8098V19.436H104.562C104.216 19.436 103.875 19.4479 103.541 19.4716C103.207 19.4835 102.902 19.531 102.628 19.614C102.365 19.6852 102.156 19.8098 102.001 19.9878C101.845 20.1657 101.768 20.4208 101.768 20.7531C101.768 21.0734 101.851 21.3344 102.018 21.5362C102.186 21.7379 102.407 21.8921 102.681 21.9989C102.956 22.0938 103.243 22.1413 103.541 22.1413Z" fill="#1A1B21"/>
<path d="M93.9298 23.5828V15.8409H90.7413V14.2035H98.9632V15.8409H95.7747V23.5828H93.9298Z" fill="#1A1B21"/>
<path d="M85.8573 23.6897C84.8661 23.6897 84.0362 23.488 83.3675 23.0845C82.7107 22.6811 82.2151 22.1235 81.8807 21.4116C81.5583 20.6878 81.3971 19.8573 81.3971 18.9199C81.3971 17.9944 81.5643 17.1698 81.8986 16.4461C82.245 15.7104 82.7584 15.135 83.4391 14.7197C84.1317 14.2925 84.9856 14.079 86.0006 14.079C86.6932 14.079 87.3082 14.1976 87.8456 14.4349C88.383 14.6604 88.8188 14.9985 89.1532 15.4494C89.4995 15.8884 89.7264 16.4401 89.8339 17.1046H87.9889C87.8336 16.6181 87.5709 16.2681 87.2007 16.0545C86.8425 15.8409 86.4186 15.7342 85.929 15.7342C85.2722 15.7342 84.7467 15.8884 84.3527 16.1969C83.9586 16.5054 83.672 16.9029 83.4929 17.3893C83.3257 17.8758 83.2421 18.386 83.2421 18.9199C83.2421 19.4776 83.3316 19.9937 83.5108 20.4683C83.7018 20.9429 83.9884 21.3285 84.3706 21.6251C84.7646 21.9099 85.2781 22.0523 85.911 22.0523C86.3887 22.0523 86.8306 21.9514 87.2366 21.7497C87.6426 21.5362 87.9053 21.1802 88.0247 20.6819H89.9234C89.816 21.37 89.5652 21.9396 89.1711 22.3904C88.777 22.8294 88.2874 23.1557 87.7023 23.3693C87.1291 23.5829 86.5141 23.6897 85.8573 23.6897Z" fill="#1A1B21"/>
<path d="M70.9974 23.5828V14.2035H72.8424V20.842C72.926 20.6996 73.0334 20.5454 73.1648 20.3792C73.2961 20.2013 73.3976 20.0589 73.4693 19.9521L77.7862 14.2035H79.5058V23.5828H77.6608V16.9799C77.5653 17.1342 77.4638 17.2884 77.3563 17.4426C77.2488 17.585 77.1473 17.7155 77.0518 17.8342L72.7349 23.5828H70.9974Z" fill="#1A1B21"/>
<path d="M60.1169 27V14.2036H61.8724L61.9619 15.5562C62.2963 15.0578 62.7381 14.69 63.2875 14.4527C63.8368 14.2036 64.4219 14.079 65.0429 14.079C65.9743 14.079 66.7446 14.2925 67.3536 14.7197C67.9626 15.1468 68.4164 15.7223 68.7149 16.4461C69.0135 17.1698 69.1627 17.9885 69.1627 18.9021C69.1627 19.8157 69.0075 20.6344 68.697 21.3582C68.3985 22.0819 67.9328 22.6515 67.2999 23.0667C66.6789 23.482 65.8848 23.6897 64.9175 23.6897C64.4518 23.6897 64.0338 23.6422 63.6636 23.5473C63.2934 23.4524 62.971 23.3159 62.6963 23.1379C62.4217 22.9481 62.1769 22.7464 61.9619 22.5328V27H60.1169ZM64.7025 22.0523C65.3474 22.0523 65.8609 21.9099 66.243 21.6251C66.6251 21.3285 66.8998 20.9429 67.067 20.4683C67.2342 19.9937 67.3178 19.4776 67.3178 18.9199C67.3178 18.3385 67.2282 17.8105 67.0491 17.3359C66.8819 16.8495 66.6013 16.4639 66.2072 16.1791C65.8251 15.8825 65.3116 15.7342 64.6667 15.7342C64.0816 15.7342 63.586 15.8825 63.18 16.1791C62.774 16.4639 62.4635 16.8495 62.2485 17.3359C62.0455 17.8224 61.944 18.3504 61.944 18.9199C61.944 19.5013 62.0396 20.0352 62.2306 20.5217C62.4336 20.9963 62.7381 21.37 63.1442 21.6429C63.5621 21.9158 64.0816 22.0523 64.7025 22.0523Z" fill="#1A1B21"/>
<path d="M49 23.5829V11H50.8987V16.6062H52.7437L56.5949 11H58.7623L54.3737 17.1935L58.7802 23.5829H56.5591L52.8691 18.3326H50.8987V23.5829H49Z" fill="#1A1B21"/>
</svg>
