<svg width="272" height="148" viewBox="0 0 272 148" fill="none" xmlns="http://www.w3.org/2000/svg">
<g clip-path="url(#clip0_2106_15530)">
<rect width="271.333" height="148" fill="#EBEBEB"/>
<g clip-path="url(#clip1_2106_15530)">
<path d="M0.332031 0H296.332V148H0.332031V0Z" fill="#00ABC2"/>
<path d="M131.042 82.0734C142.039 82.0734 150.955 73.1579 150.955 62.16C150.955 51.1621 142.039 42.2466 131.042 42.2466C120.044 42.2466 111.128 51.1621 111.128 62.16C111.128 73.1579 120.044 82.0734 131.042 82.0734Z" fill="#FFEC2D"/>
<path d="M131.042 39.5308C132.226 39.516 132.67 38.776 132.67 37.888C132.67 36.704 131.042 31.0652 131.042 31.0652C131.042 31.0652 129.414 36.704 129.414 37.888C129.414 38.776 129.858 39.5308 131.042 39.5308Z" fill="#FFEC2D"/>
<path d="M153.671 62.16C153.686 63.344 154.426 63.788 155.314 63.788C156.498 63.788 162.136 62.16 162.136 62.16C162.136 62.16 156.498 60.532 155.314 60.532C154.426 60.532 153.671 60.976 153.671 62.16Z" fill="#FFEC2D"/>
<path d="M131.042 84.7892C129.858 84.804 129.414 85.544 129.414 86.432C129.414 87.616 131.042 93.2548 131.042 93.2548C131.042 93.2548 132.67 87.616 132.67 86.432C132.67 85.544 132.226 84.7892 131.042 84.7892Z" fill="#FFEC2D"/>
<path d="M108.412 62.16C108.398 60.976 107.658 60.532 106.77 60.532C105.586 60.532 99.9468 62.16 99.9468 62.16C99.9468 62.16 105.586 63.788 106.77 63.788C107.658 63.788 108.412 63.344 108.412 62.16Z" fill="#FFEC2D"/>
<path d="M139.701 41.2534C140.801 41.6928 141.494 41.179 141.834 40.3586C142.287 39.2647 142.941 33.4322 142.941 33.4322C142.941 33.4322 139.279 38.0187 138.826 39.1126C138.486 39.933 138.608 40.8003 139.701 41.2534Z" fill="#FFEC2D"/>
<path d="M151.948 70.8198C151.509 71.9194 152.022 72.6128 152.843 72.9526C153.937 73.4057 159.769 74.0595 159.769 74.0595C159.769 74.0595 155.183 70.3975 154.089 69.9444C153.268 69.6046 152.401 69.726 151.948 70.8198Z" fill="#FFEC2D"/>
<path d="M122.382 83.0667C121.282 82.6272 120.589 83.141 120.249 83.9614C119.796 85.0553 119.142 90.8879 119.142 90.8879C119.142 90.8879 122.804 86.3013 123.257 85.2074C123.597 84.387 123.476 83.5198 122.382 83.0667Z" fill="#FFEC2D"/>
<path d="M110.135 53.5002C110.574 52.4007 110.061 51.7073 109.24 51.3674C108.146 50.9143 102.314 50.2605 102.314 50.2605C102.314 50.2605 106.9 53.9225 107.994 54.3756C108.815 54.7154 109.682 54.5941 110.135 53.5002Z" fill="#FFEC2D"/>
<path d="M147.043 46.1588C147.89 46.9855 148.728 46.7762 149.356 46.1483C150.193 45.3111 153.029 40.1727 153.029 40.1727C153.029 40.1727 147.89 43.0087 147.053 43.8459C146.425 44.4739 146.206 45.3215 147.043 46.1588Z" fill="#FFEC2D"/>
<path d="M147.043 78.1613C146.216 79.009 146.425 79.8462 147.053 80.4741C147.89 81.3113 153.029 84.1474 153.029 84.1474C153.029 84.1474 150.193 79.009 149.355 78.1717C148.728 77.5438 147.88 77.3241 147.043 78.1613Z" fill="#FFEC2D"/>
<path d="M115.04 78.1613C114.193 77.3345 113.355 77.5438 112.727 78.1717C111.89 79.009 109.054 84.1474 109.054 84.1474C109.054 84.1474 114.193 81.3113 115.03 80.4741C115.658 79.8462 115.877 78.9985 115.04 78.1613Z" fill="#FFEC2D"/>
<path d="M115.04 46.1588C115.867 45.3111 115.658 44.4739 115.03 43.846C114.193 43.0087 109.054 40.1727 109.054 40.1727C109.054 40.1727 111.89 45.3111 112.728 46.1483C113.355 46.7762 114.203 46.996 115.04 46.1588Z" fill="#FFEC2D"/>
<path d="M151.948 53.5002C152.415 54.5884 153.268 54.7154 154.089 54.3756C155.183 53.9225 159.769 50.2605 159.769 50.2605C159.769 50.2605 153.937 50.9143 152.843 51.3674C152.022 51.7073 151.495 52.4063 151.948 53.5002Z" fill="#FFEC2D"/>
<path d="M139.701 83.0667C138.613 83.5334 138.486 84.387 138.826 85.2074C139.279 86.3013 142.941 90.8879 142.941 90.8879C142.941 90.8879 142.287 85.0553 141.834 83.9614C141.494 83.141 140.795 82.6136 139.701 83.0667Z" fill="#FFEC2D"/>
<path d="M110.135 70.8198C109.668 69.7316 108.815 69.6046 107.994 69.9444C106.9 70.3975 102.314 74.0595 102.314 74.0595C102.314 74.0595 108.146 73.4057 109.24 72.9526C110.061 72.6128 110.588 71.9137 110.135 70.8198Z" fill="#FFEC2D"/>
<path d="M122.382 41.2534C123.47 40.7866 123.597 39.933 123.257 39.1126C122.804 38.0187 119.142 33.4322 119.142 33.4322C119.142 33.4322 119.796 39.2647 120.249 40.3586C120.589 41.179 121.288 41.7065 122.382 41.2534Z" fill="#FFEC2D"/>
<path d="M135.456 39.9656C136.62 40.1821 137.2 39.5429 137.373 38.672C137.604 37.5108 137.108 31.6627 137.108 31.6627C137.108 31.6627 134.411 36.8755 134.18 38.0368C134.007 38.9077 134.295 39.7346 135.456 39.9656Z" fill="#FFEC2D"/>
<path d="M153.236 66.5748C153.019 67.7389 153.658 68.3187 154.529 68.492C155.691 68.723 161.539 68.2263 161.539 68.2263C161.539 68.2263 156.326 65.5295 155.164 65.2985C154.294 65.1253 153.467 65.4135 153.236 66.5748Z" fill="#FFEC2D"/>
<path d="M126.627 84.3544C125.462 84.1379 124.883 84.7771 124.709 85.648C124.478 86.8093 124.975 92.6573 124.975 92.6573C124.975 92.6573 127.672 87.4445 127.903 86.2832C128.076 85.4123 127.788 84.5854 126.627 84.3544Z" fill="#FFEC2D"/>
<path d="M108.847 57.7453C109.064 56.5811 108.424 56.0013 107.553 55.8281C106.392 55.5971 100.544 56.0937 100.544 56.0937C100.544 56.0937 105.757 58.7905 106.918 59.0215C107.789 59.1947 108.616 58.9065 108.847 57.7453Z" fill="#FFEC2D"/>
<path d="M143.614 43.3445C144.606 43.99 145.387 43.6214 145.88 42.8831C146.538 41.8986 148.317 36.3056 148.317 36.3056C148.317 36.3056 143.83 40.0897 143.173 41.0741C142.679 41.8125 142.629 42.6867 143.614 43.3445Z" fill="#FFEC2D"/>
<path d="M149.857 74.7321C149.211 75.7248 149.58 76.5051 150.318 76.9985C151.303 77.6562 156.896 79.4354 156.896 79.4354C156.896 79.4354 153.112 74.949 152.127 74.2912C151.389 73.7978 150.515 73.7477 149.857 74.7321Z" fill="#FFEC2D"/>
<path d="M118.469 80.9755C117.477 80.33 116.696 80.6986 116.203 81.437C115.545 82.4214 113.766 88.0144 113.766 88.0144C113.766 88.0144 118.252 84.2304 118.91 83.2459C119.404 82.5076 119.454 81.6333 118.469 80.9755Z" fill="#FFEC2D"/>
<path d="M112.226 49.5879C112.871 48.5952 112.503 47.8149 111.764 47.3216C110.78 46.6638 105.187 44.8847 105.187 44.8847C105.187 44.8847 108.971 49.3711 109.955 50.0289C110.694 50.5222 111.568 50.5724 112.226 49.5879Z" fill="#FFEC2D"/>
<path d="M149.857 49.5879C150.527 50.5641 151.389 50.5222 152.127 50.0288C153.112 49.3711 156.896 44.8847 156.896 44.8847C156.896 44.8847 151.303 46.6638 150.318 47.3216C149.58 47.8149 149.199 48.6034 149.857 49.5879Z" fill="#FFEC2D"/>
<path d="M143.614 80.9755C142.637 81.6456 142.679 82.5076 143.173 83.2459C143.83 84.2304 148.317 88.0144 148.317 88.0144C148.317 88.0144 146.538 82.4214 145.88 81.437C145.387 80.6986 144.598 80.3177 143.614 80.9755Z" fill="#FFEC2D"/>
<path d="M112.226 74.7321C111.556 73.7559 110.694 73.7978 109.955 74.2912C108.971 74.949 105.187 79.4354 105.187 79.4354C105.187 79.4354 110.78 77.6562 111.764 76.9984C112.503 76.5051 112.884 75.7166 112.226 74.7321Z" fill="#FFEC2D"/>
<path d="M118.469 43.3445C119.445 42.6744 119.404 41.8125 118.91 41.0741C118.252 40.0897 113.766 36.3056 113.766 36.3056C113.766 36.3056 115.545 41.8986 116.203 42.8831C116.696 43.6214 117.485 44.0023 118.469 43.3445Z" fill="#FFEC2D"/>
<path d="M153.236 57.7453C153.481 58.9036 154.294 59.1947 155.165 59.0215C156.326 58.7905 161.539 56.0937 161.539 56.0937C161.539 56.0937 155.691 55.5971 154.529 55.8281C153.659 56.0013 153.005 56.584 153.236 57.7453Z" fill="#FFEC2D"/>
<path d="M135.456 84.3544C134.298 84.5999 134.007 85.4123 134.18 86.2832C134.411 87.4445 137.108 92.6573 137.108 92.6573C137.108 92.6573 137.604 86.8093 137.373 85.648C137.2 84.7771 136.617 84.1234 135.456 84.3544Z" fill="#FFEC2D"/>
<path d="M108.847 66.5748C108.601 65.4164 107.789 65.1253 106.918 65.2985C105.757 65.5295 100.544 68.2263 100.544 68.2263C100.544 68.2263 106.392 68.723 107.553 68.492C108.424 68.3187 109.078 67.736 108.847 66.5748Z" fill="#FFEC2D"/>
<path d="M126.627 39.9656C127.785 39.7201 128.076 38.9077 127.903 38.0368C127.672 36.8755 124.975 31.6627 124.975 31.6627C124.975 31.6627 124.478 37.5108 124.709 38.672C124.883 39.5429 125.465 40.1966 126.627 39.9656Z" fill="#FFEC2D"/>
<path d="M127.491 105.297C126.958 105.327 126.44 105.396 125.932 105.558C125.236 105.652 124.57 105.894 123.879 106.008L123.603 106.052L123.139 106.096C123.169 106.224 123.189 106.353 123.189 106.481C123.189 106.614 123.174 106.742 123.139 106.851C123.11 106.955 123.016 107.083 122.942 107.162C122.843 107.27 122.74 107.364 122.616 107.423C122.498 107.482 122.365 107.507 122.232 107.517C122.098 107.522 121.96 107.517 121.832 107.468C121.699 107.423 121.576 107.34 121.462 107.241C121.326 107.275 121.187 107.299 121.048 107.315C120.91 107.33 120.781 107.33 120.658 107.315C120.52 107.275 120.377 107.231 120.244 107.177C120.109 107.121 119.981 107.053 119.859 106.974C119.356 107.27 118.793 107.552 118.487 108.07C118.315 108.306 118.28 108.578 118.241 108.859C118.216 109.204 118.305 109.569 118.453 109.89C118.507 109.984 118.551 109.55 118.719 109.49C119 109.258 119.351 109.091 119.706 108.997C120.007 108.844 119.967 109.007 119.844 109.244C119.814 109.367 119.647 109.836 119.874 109.599C120.875 109.155 121.985 109.066 123.065 108.982C124.634 108.82 126.208 108.785 127.782 108.765L132.222 108.859C132.927 108.879 133.638 109.036 134.333 108.918C134.501 108.874 134.762 108.864 134.861 108.765C134.545 108.583 134.175 108.578 133.825 108.533H131.003C130.219 108.454 129.4 108.444 128.66 108.148C128.462 108.07 128.28 107.882 128.092 108.084C127.811 108.183 127.51 108.252 127.214 108.272C126.696 108.311 126.178 108.203 125.7 108.01C126.045 107.532 126.46 107.112 126.839 106.668C126.534 106.619 126.238 106.555 125.932 106.481C126.469 106.111 126.968 105.692 127.491 105.297Z" fill="#FFEC2D"/>
<path d="M150.539 110.409C149.467 111.053 148.649 109.912 147.752 109.57C147.112 109.917 147.052 111.08 146.454 111.631C145.739 112.446 144.862 111.404 144.927 110.6C144.071 111.322 143.639 112.957 142.255 112.738C141.599 112.203 141.112 111.081 140.611 112.359C140.203 112.984 139.115 113.873 138.551 112.929C138.377 112.096 137.959 111.116 137.506 112.44C137.195 113.376 136.196 114.064 135.23 113.655C134.701 113.222 135.654 111.623 134.981 111.737C133.974 112.402 133.389 114.054 131.985 113.922C131.44 113.31 132.316 112.273 131.718 111.593C131.012 112.499 130.228 113.826 129.007 113.922C128.417 113.444 129.03 112.072 128.653 111.869C127.4 112.62 126.078 113.96 124.502 113.54C125.116 111.191 127.682 110.367 129.841 110.184C133.554 109.727 137.46 110.566 141.033 109.226C141.61 108.875 143.009 108.377 142.511 107.562C142.07 106.919 143.658 107.17 143.811 106.419C143.716 105.467 144.54 105.598 145.345 105.515C148.953 105.359 152.516 106.119 156.113 106.248C156.385 108.001 154.441 109.231 152.875 108.69C152.128 108.811 151.007 106.971 151.226 108.31C151.076 109.013 151.181 109.94 150.539 110.41M119.844 106.821C120.679 107.585 121.265 106.677 122.046 106.345C124.664 105.445 126.949 103.871 129.201 102.298C130.565 101.169 131.748 99.7045 133.581 99.3382C137.156 98.2573 140.956 98.3885 144.545 97.391C147.278 93.6495 151.919 92.3147 155.807 90.1641C156.68 89.8928 157.018 89.1743 157.297 88.381C158.781 86.0382 160.802 83.9622 163.194 82.544C164.325 81.9258 165.675 81.5699 166.955 81.8526C166.864 83.378 165.989 84.73 164.932 85.7849C165.797 85.766 166.54 85.2197 167.413 85.2505C167.713 86.8161 166.022 87.6354 165.123 88.6101C165.624 88.7266 167.543 88.8718 166.497 89.3736C165.164 90.2986 163.642 90.9337 162.412 92.0079C163.547 92.2118 163.676 92.4531 162.522 92.8636C161.897 93.2872 160.696 93.4352 160.58 94.2603C161.437 94.7873 160.185 95.3107 159.702 95.4821C158.778 95.6972 157.807 96.0985 159.034 96.8003C158.57 97.5015 157.574 97.6511 156.762 97.5817C157.008 98.3765 157.365 99.2658 156.334 99.6164C154.021 101.364 151.308 102.636 148.401 102.927C152.032 103.206 155.772 102.532 158.875 100.557C159.285 100.073 161.433 99.5522 160.231 99.1449C159.666 98.9096 158.453 98.6481 158.371 98.2168C160.052 97.1799 162.169 97.5487 163.977 96.9328C164.024 96.3474 162.602 96.5102 162.072 96.377C160.808 96.2734 160.882 95.9508 162.101 95.8312C163.643 95.4227 165.39 95.3423 166.688 94.3367C165.631 93.8472 164.303 94.2781 163.176 93.8785C165.086 93.0423 167.341 92.9584 169.055 91.7023C169.836 90.8335 168.054 91.105 167.535 91.1261C166.477 91.3104 165.988 90.8038 167.19 90.3641C169.243 88.8505 171.842 87.8673 173.284 85.6729C173.626 85.1817 174.088 83.7017 172.999 84.2341C171.566 84.7105 170.306 86.321 168.673 85.8228C171.89 83.3299 174.95 80.4919 177.149 77.042C177.262 76.047 175.701 75.9394 175.294 76.7205C173.228 78.7117 171.357 81.0621 168.711 82.3105C171.245 79.8648 173.34 76.9689 175.168 73.9674C175.56 73.0747 176.613 72.0011 176.042 71.01C175.12 70.2473 173.968 70.9454 173.489 71.858C171.883 73.9552 170.663 76.4029 168.597 78.111C170.405 74.6595 172.278 70.9852 172.324 67.0042C172.318 66.1846 172.153 64.9775 171.04 65.1305C170.158 65.2887 170.368 66.6093 170.004 67.2773C169.203 69.997 168.827 72.9425 167.184 75.324C167.554 73.1139 168.201 70.81 167.704 68.5782C167.472 67.5808 165.862 68.0099 166.069 68.997C164.145 78.7443 157.604 87.2691 149.051 92.2005C145.134 94.4165 140.759 95.8451 136.308 96.4928C135.111 96.7549 133.816 96.6011 132.672 97.0093C129.899 99.1356 128.22 102.694 124.709 103.808C123.135 104.59 121.084 104.748 119.958 106.21C119.861 106.397 119.84 106.614 119.844 106.821Z" fill="#FFEC2D"/>
<path d="M130.352 96.9326C129.834 97.873 129.529 98.954 128.863 99.796C126.859 97.9725 123.954 98.0327 121.412 97.9113C119.314 97.7993 117.032 97.6057 115.408 96.1093C113.701 94.7104 112.307 92.8941 110.398 91.7591C108.657 91.2855 106.901 90.6929 105.5 89.499C102.508 87.0597 100.794 83.4403 97.8697 80.9249C97.3122 80.3761 96.6548 79.9509 96.0302 79.4853C95.4367 79.6299 95.7053 80.9107 94.9791 80.2579C94.5839 79.9767 93.5956 79.9493 93.5065 80.3421C94.4006 81.5202 95.2955 82.8653 95.4194 84.3721C94.8096 84.4346 93.7255 84.2434 93.4233 84.4704C94.233 85.684 95.271 86.7604 96.4502 87.6173C95.8846 87.7082 94.77 87.6588 94.5532 87.8867C95.7237 88.8407 96.9789 89.8157 98.5117 90.0608C98.8255 90.4743 98.0529 91.2729 98.7026 91.6261C99.0793 91.78 100.322 92.0375 99.4662 92.466C98.8786 92.8619 99.0966 93.7846 99.848 93.7639C100.323 94.0066 101.39 94.066 101.473 94.4862C101.052 94.9146 99.7419 95.4227 100.857 95.8241C101.899 96.4019 103.087 96.7771 104.277 96.8182C103.68 97.3205 102.944 97.6056 102.33 98.0781C105.075 99.6879 108.118 100.747 111.126 101.766C112.323 102.166 113.534 102.539 114.775 102.774C111.169 102.566 107.683 101.498 104.398 100.037C102.696 99.2901 100.982 98.5686 99.2371 97.9255C100.002 97.5274 100.887 97.4302 101.68 97.0856C100.033 96.7556 98.2342 96.6476 96.7865 95.7422C97.0085 95.3462 97.8496 95.3275 98.3147 95.126C99.1896 94.9164 99.7323 94.6621 98.4987 94.5861C97.2548 94.2485 95.828 94.4 94.7318 93.6495C94.8024 93.1996 95.9497 93.3565 96.4169 93.1622C97.0054 93.0611 97.6595 92.9764 98.1297 92.5805C96.2066 91.7832 93.6912 92.3482 92.1849 90.6499C91.8375 90.0028 93.2636 90.5241 93.6698 90.4162C94.7018 90.4162 95.8109 90.7441 96.7936 90.3281C93.9914 89.0978 90.9898 87.946 88.8526 85.6704C88.6154 85.3045 87.9044 84.3051 88.4781 84.1815C90.1414 84.4016 91.3454 86.217 93.1247 85.9344C93.361 85.6158 92.091 85.0936 91.774 84.6382C89.1799 82.4122 86.6621 79.9964 84.8439 77.0805C84.7189 76.1066 86.2495 75.9609 86.6525 76.7128C88.6364 78.6237 90.4285 80.8534 92.8996 82.1579C93.7763 82.5831 92.3961 81.6547 92.2122 81.318C89.929 78.6667 87.7555 75.8666 86.1598 72.7441C85.8741 72.1814 85.4008 71.1625 86.2554 70.863C87.1098 70.435 87.9575 71.0181 88.3907 71.752C90.0694 73.8692 91.3046 76.3855 93.3956 78.1493C91.6142 74.6922 89.7121 71.053 89.6661 67.0748C89.7079 66.3037 89.7575 65.1372 90.8033 65.1688C91.6814 65.0356 91.5427 66.1599 91.8304 66.6959C92.6956 69.6185 93.0729 72.7818 94.8085 75.3622C94.4251 73.1941 93.8608 70.9614 94.2357 68.7574C94.3221 68.0337 95.1369 67.8146 95.6686 68.2521C96.0986 69.3044 96.1881 70.6038 96.5799 71.7288C98.8087 79.3538 103.813 86.0599 110.335 90.5603C115.706 94.2442 122.081 96.4433 128.586 96.8268C129.174 96.878 129.764 96.8958 130.352 96.9319" fill="#FFEC2D"/>
<path d="M122.093 107.042C122.287 107.042 122.444 106.885 122.444 106.691C122.444 106.498 122.287 106.341 122.093 106.341C121.9 106.341 121.743 106.498 121.743 106.691C121.743 106.885 121.9 107.042 122.093 107.042Z" fill="#FFEC2D"/>
<path d="M122.064 106.778C122.143 106.778 122.207 106.714 122.207 106.635C122.207 106.556 122.143 106.492 122.064 106.492C121.985 106.492 121.921 106.556 121.921 106.635C121.921 106.714 121.985 106.778 122.064 106.778Z" fill="#FFEC2D" stroke="#FFEC2D" stroke-width="0.1905"/>
<path d="M18.092 10.7925C18.092 10.7925 16.6697 9.59721 16.1866 10.1968C15.4096 11.161 18.5754 15.964 18.5754 17.6554C18.5754 20.4317 16.7229 21.1866 14.4354 21.5831C12.9005 21.8492 10.401 21.4718 10.401 21.4718C10.8717 20.8394 11.1777 20.6531 11.9707 20.6026C11.0879 20.1443 10.1889 19.1493 10.1889 17.6006C10.1889 15.2122 11.1721 14.2277 11.1721 11.5351C11.1721 10.0414 9.94727 8.13985 9.94727 8.13985C12.1124 8.35653 13.1854 10.3612 12.5749 11.9633C12.9194 12.0129 13.2323 11.9352 13.501 11.6806C13.6594 12.1246 13.4093 12.6401 13.0744 13.0842C13.3442 13.2284 13.5423 13.142 13.9721 13.0532C13.9313 13.5108 13.6572 13.9968 12.9864 14.4544C14.9328 13.949 16.1304 15.3056 16.1304 16.7258C16.1304 17.7985 15.3787 18.5673 14.6439 18.5673C14.4065 18.5673 14.0577 18.4695 13.861 18.3226C13.7222 18.6178 13.7936 19.013 13.9365 19.3082C13.398 19.1659 13.0562 18.846 13.2995 18.1803C12.8858 18.1423 12.5568 18.0026 12.333 17.7363C12.5598 17.4458 12.9039 17.2786 13.2995 17.2922C12.9983 16.6706 13.3339 16.3228 13.8231 16.0407C13.8231 16.0407 13.512 17.2922 14.3063 17.2922C14.6634 17.2922 14.9889 17.1758 14.9889 16.6494C14.9889 16.1911 14.5882 15.5561 13.6619 15.5965C12.7356 15.6369 11.9848 16.2352 11.9848 17.7138C11.9848 19.0778 13.085 19.7562 14.5348 19.8C15.8421 19.8404 16.8288 19.1323 16.8288 17.7835C16.8288 15.9886 14.2376 11.8971 14.2376 10.2977C14.2376 9.09741 15.3169 8.42757 16.3728 8.42757C17.7421 8.42757 18.8974 9.78339 18.8974 9.78339L18.093 10.792L18.092 10.7925Z" fill="#FFEC2D"/>
<path d="M18.3909 43.2367C18.3909 46.2367 15.6976 47.7785 13.5812 47.7785C10.7299 47.7785 9.21167 46.0737 9.21167 43.842C9.21167 42.5769 9.44344 41.7832 10.0267 40.5724L16.5614 27.0078C16.7897 26.536 16.8634 25.9987 16.8634 25.2114C16.8634 23.9952 15.6839 23.0013 14.447 22.9708C13.3196 22.9427 12.0912 24.0219 12.0912 25.2518C12.0912 26.7455 12.8661 27.4115 13.6617 27.4115C14.6409 27.4115 15.031 27.009 15.031 26.3215C15.031 25.8424 14.7997 25.6352 14.4672 25.6352C13.6274 25.6352 13.8632 26.7657 13.8632 26.7657C13.4461 26.6743 13.1033 26.2481 13.2993 25.7159C12.9826 25.6459 12.6967 25.4761 12.4838 25.2315C12.7089 25.0132 12.9672 24.8448 13.2993 24.7875C13.1026 24.1381 13.3654 23.8209 13.9336 23.6874C13.8189 23.9371 13.8151 24.1669 13.8531 24.3837C14.7475 24.1293 16.1184 24.5341 16.1184 26.0792C16.1184 27.6133 15.0537 28.905 13.0576 28.5822C13.5324 28.8092 13.7739 29.2738 13.8228 29.7933C13.4602 29.6521 13.0576 29.632 13.0576 29.632C13.291 30.0434 13.6151 30.3982 13.6012 31.2062C13.2312 31.038 12.8874 30.7264 12.4132 30.9236C13.1576 32.3885 12.243 34.4033 9.9163 34.88C10.7679 33.8818 11.1848 32.8041 11.1848 31.7311C11.1848 28.2536 10.2184 27.6692 10.2184 25.2516C10.2184 24.24 10.7383 23.1478 11.7688 22.4054V22.4458C11.0877 22.2633 10.6514 21.928 10.4006 21.4723C11.9568 21.031 14.219 21.0391 15.4334 21.517C16.8297 21.6787 17.8044 22.7498 18.0915 23.2936C18.3786 23.8373 18.9365 25.8026 18.0915 27.5726L11.4466 41.6619C11.1583 42.2783 10.9834 42.9321 10.9834 43.64C10.9834 45.4205 12.6143 46.0421 13.5408 46.0421C14.6483 46.0421 15.7759 45.1985 15.7759 44.1447C15.7759 43.4771 15.4133 43.075 14.8898 43.075C13.6381 43.075 13.7141 44.1398 13.9637 44.8109C13.1846 44.4605 12.7317 43.8352 12.8562 43.1759C12.4151 43.1154 11.9953 42.9062 11.6078 42.4693C11.9127 42.0845 12.2844 41.7934 12.8562 41.7831C12.6065 40.7601 13.2913 40.3275 13.9637 40.0876C13.751 40.8384 13.6114 41.7024 14.8898 41.7024C15.8222 41.7024 16.556 41.8639 16.984 42.4695L17.0847 38.4727C17.1386 37.2742 15.4807 37.3084 14.4269 37.6653C14.8246 36.2849 15.6402 35.5385 17.5278 35.7275C17.0696 35.5358 16.5813 35.1047 16.5813 34.2741C16.5816 33.1504 17.4933 31.9054 18.0918 31.5373L18.3911 43.2369L18.3909 43.2367Z" fill="#FFEC2D"/>
<path d="M18.3909 52.2351C18.3909 49.2352 15.6976 47.6933 13.5812 47.6933C10.7299 47.6933 9.21167 49.3981 9.21167 51.6298C9.21167 52.8949 9.44344 53.6886 10.0267 54.8994L16.5614 68.4641C16.7897 68.9359 16.8634 69.4731 16.8634 70.2605C16.8634 71.4766 15.6839 72.4706 14.447 72.5011C13.3196 72.5292 12.0912 71.45 12.0912 70.2201C12.0912 68.7263 12.8661 68.0603 13.6617 68.0603C14.6409 68.0603 15.031 68.4629 15.031 69.1503C15.031 69.6294 14.7997 69.8366 14.4672 69.8366C13.6274 69.8366 13.8632 68.7062 13.8632 68.7062C13.4461 68.7975 13.1033 69.2238 13.2993 69.756C12.9826 69.8259 12.6967 69.9957 12.4838 70.2404C12.7089 70.4587 12.9672 70.6271 13.2993 70.6844C13.1026 71.3338 13.3654 71.651 13.9336 71.7844C13.8189 71.5348 13.8151 71.3049 13.8531 71.0881C14.7475 71.3425 16.1184 70.9377 16.1184 69.3926C16.1184 67.8586 15.0537 66.5669 13.0576 66.8896C13.5324 66.6626 13.7739 66.198 13.8228 65.6786C13.4602 65.8198 13.0576 65.8399 13.0576 65.8399C13.291 65.4284 13.6151 65.0737 13.6012 64.2656C13.2312 64.4339 12.8874 64.7454 12.4132 64.5483C13.1576 63.0834 12.243 61.0685 9.9163 60.5918C10.7679 61.5901 11.1848 62.6678 11.1848 63.7408C11.1848 67.2182 10.2184 67.8027 10.2184 70.2202C10.2184 71.2318 10.7383 72.3241 11.7688 73.0664V73.026C11.0877 73.2085 10.6514 73.5439 10.4006 73.9996C11.9568 74.4409 14.219 74.4328 15.4334 73.9549C16.8297 73.7931 17.8044 72.722 18.0915 72.1783C18.3786 71.6345 18.9365 69.6692 18.0915 67.8993L11.4466 53.81C11.1583 53.1936 10.9834 52.5397 10.9834 51.8318C10.9834 50.0514 12.6143 49.4298 13.5408 49.4298C14.6483 49.4298 15.7759 50.2734 15.7759 51.3272C15.7759 51.9948 15.4133 52.3969 14.8898 52.3969C13.6381 52.3969 13.7141 51.332 13.9637 50.661C13.1846 51.0113 12.7317 51.6366 12.8562 52.296C12.4151 52.3565 11.9953 52.5656 11.6078 53.0025C11.9127 53.3873 12.2844 53.6784 12.8562 53.6888C12.6065 54.7118 13.2913 55.1444 13.9637 55.3843C13.751 54.6335 13.6114 53.7694 14.8898 53.7694C15.8222 53.7694 16.556 53.608 16.984 53.0024L17.0847 56.9991C17.1386 58.1976 15.4807 58.1634 14.4269 57.8066C14.8246 59.187 15.6402 59.9334 17.5278 59.7444C17.0696 59.936 16.5813 60.3671 16.5813 61.1977C16.5816 62.3215 17.4933 63.5665 18.0918 63.9345L18.3911 52.235L18.3909 52.2351Z" fill="#FFEC2D"/>
<path d="M18.0918 10.7925C18.0918 10.7925 19.5141 9.59721 19.9972 10.1968C20.7742 11.161 17.6085 15.964 17.6085 17.6554C17.6085 20.4317 19.461 21.1866 21.7485 21.5831C23.2834 21.8492 25.7828 21.4718 25.7828 21.4718C25.3122 20.8394 25.0061 20.6531 24.2131 20.6026C25.0959 20.1443 25.9949 19.1493 25.9949 17.6006C25.9949 15.2122 25.0117 14.2277 25.0117 11.5351C25.0117 10.0414 26.2366 8.13985 26.2366 8.13985C24.0715 8.35653 22.9985 10.3612 23.609 11.9633C23.2644 12.0129 22.9516 11.9352 22.6828 11.6806C22.5244 12.1246 22.7746 12.6401 23.1095 13.0842C22.8397 13.2284 22.6415 13.142 22.2117 13.0532C22.2526 13.5108 22.5267 13.9968 23.1974 14.4544C21.251 13.949 20.0534 15.3056 20.0534 16.7258C20.0534 17.7985 20.8051 18.5673 21.5399 18.5673C21.7773 18.5673 22.1262 18.4695 22.3229 18.3226C22.4617 18.6178 22.3902 19.013 22.2474 19.3082C22.7858 19.1659 23.1277 18.846 22.8844 18.1803C23.298 18.1423 23.627 18.0026 23.8508 17.7363C23.6241 17.4458 23.28 17.2786 22.8844 17.2922C23.1856 16.6706 22.8499 16.3228 22.3607 16.0407C22.3607 16.0407 22.6718 17.2922 21.8775 17.2922C21.5204 17.2922 21.195 17.1758 21.195 16.6494C21.195 16.1911 21.5956 15.5561 22.5219 15.5965C23.4483 15.6369 24.1991 16.2352 24.1991 17.7138C24.1991 19.0778 23.0988 19.7562 21.649 19.8C20.3417 19.8404 19.355 19.1323 19.355 17.7835C19.355 15.9886 21.9462 11.8971 21.9462 10.2977C21.9462 9.09741 20.867 8.42757 19.811 8.42757C18.4417 8.42757 17.2864 9.78339 17.2864 9.78339L18.0908 10.792L18.0918 10.7925Z" fill="#FFEC2D"/>
<path d="M17.7929 43.2367C17.7929 46.2367 20.4862 47.7785 22.6026 47.7785C25.454 47.7785 26.9722 46.0737 26.9722 43.842C26.9722 42.5769 26.7404 41.7832 26.1571 40.5724L19.6225 27.0078C19.3941 26.536 19.3204 25.9987 19.3204 25.2114C19.3204 23.9952 20.5 23.0013 21.7368 22.9708C22.8643 22.9427 24.0927 24.0219 24.0927 25.2518C24.0927 26.7455 23.3178 27.4115 22.5221 27.4115C21.5429 27.4115 21.1528 27.009 21.1528 26.3215C21.1528 25.8424 21.3841 25.6352 21.7167 25.6352C22.5564 25.6352 22.3207 26.7657 22.3207 26.7657C22.7377 26.6743 23.0805 26.2481 22.8846 25.7159C23.2012 25.6459 23.4871 25.4761 23.7 25.2315C23.4749 25.0132 23.2167 24.8448 22.8846 24.7875C23.0812 24.1381 22.8184 23.8209 22.2502 23.6874C22.3649 23.9371 22.3688 24.1669 22.3307 24.3837C21.4364 24.1293 20.0655 24.5341 20.0655 26.0792C20.0655 27.6133 21.1302 28.905 23.1262 28.5822C22.6515 28.8092 22.4099 29.2738 22.3611 29.7933C22.7237 29.6521 23.1262 29.632 23.1262 29.632C22.8928 30.0434 22.5687 30.3982 22.5826 31.2062C22.9526 31.038 23.2964 30.7264 23.7706 30.9236C23.0262 32.3885 23.9408 34.4033 26.2675 34.88C25.4159 33.8818 24.999 32.8041 24.999 31.7311C24.999 28.2536 25.9655 27.6692 25.9655 25.2516C25.9655 24.24 25.4455 23.1478 24.415 22.4054V22.4458C25.0961 22.2633 25.5324 21.928 25.7833 21.4723C24.2271 21.031 21.9649 21.0391 20.7504 21.517C19.3542 21.6787 18.3794 22.7498 18.0923 23.2936C17.8052 23.8373 17.2474 25.8026 18.0923 27.5726L24.7372 41.6619C25.0255 42.2783 25.2005 42.9321 25.2005 43.64C25.2005 45.4205 23.5695 46.0421 22.643 46.0421C21.5355 46.0421 20.4079 45.1985 20.4079 44.1447C20.4079 43.4771 20.7705 43.075 21.294 43.075C22.5458 43.075 22.4697 44.1398 22.2202 44.8109C22.9993 44.4605 23.4521 43.8352 23.3277 43.1759C23.7687 43.1154 24.1886 42.9062 24.576 42.4693C24.2712 42.0845 23.8994 41.7934 23.3277 41.7831C23.5773 40.7601 22.8925 40.3275 22.2202 40.0876C22.4329 40.8384 22.5724 41.7024 21.294 41.7024C20.3616 41.7024 19.6278 41.8639 19.1998 42.4695L19.0992 38.4727C19.0453 37.2742 20.7032 37.3084 21.7569 37.6653C21.3593 36.2849 20.5436 35.5385 18.656 35.7275C19.1143 35.5358 19.6025 35.1047 19.6025 34.2741C19.6022 33.1504 18.6905 31.9054 18.092 31.5373L17.7928 43.2369L17.7929 43.2367Z" fill="#FFEC2D"/>
<path d="M17.7929 52.2351C17.7929 49.2352 20.4862 47.6933 22.6026 47.6933C25.454 47.6933 26.9722 49.3981 26.9722 51.6298C26.9722 52.8949 26.7404 53.6886 26.1571 54.8994L19.6225 68.4641C19.3941 68.9359 19.3204 69.4731 19.3204 70.2605C19.3204 71.4766 20.5 72.4706 21.7368 72.5011C22.8643 72.5292 24.0927 71.45 24.0927 70.2201C24.0927 68.7263 23.3178 68.0603 22.5221 68.0603C21.5429 68.0603 21.1528 68.4629 21.1528 69.1503C21.1528 69.6294 21.3841 69.8366 21.7167 69.8366C22.5564 69.8366 22.3207 68.7062 22.3207 68.7062C22.7377 68.7975 23.0805 69.2237 22.8846 69.756C23.2012 69.8259 23.4871 69.9957 23.7 70.2404C23.4749 70.4587 23.2167 70.6271 22.8846 70.6844C23.0812 71.3338 22.8184 71.6509 22.2502 71.7844C22.3649 71.5348 22.3688 71.3049 22.3307 71.0881C21.4364 71.3425 20.0655 70.9377 20.0655 69.3926C20.0655 67.8586 21.1302 66.5668 23.1262 66.8896C22.6515 66.6626 22.4099 66.198 22.3611 65.6786C22.7237 65.8197 23.1262 65.8399 23.1262 65.8399C22.8928 65.4284 22.5687 65.0737 22.5826 64.2656C22.9526 64.4339 23.2964 64.7454 23.7706 64.5483C23.0262 63.0834 23.9408 61.0685 26.2675 60.5918C25.4159 61.5901 24.999 62.6678 24.999 63.7408C24.999 67.2182 25.9655 67.8026 25.9655 70.2202C25.9655 71.2318 25.4455 72.324 24.415 73.0664V73.026C25.0961 73.2085 25.5324 73.5439 25.7833 73.9996C24.2271 74.4409 21.9649 74.4328 20.7504 73.9549C19.3542 73.7931 18.3794 72.722 18.0923 72.1783C17.8052 71.6345 17.2474 69.6692 18.0923 67.8993L24.7372 53.81C25.0255 53.1936 25.2005 52.5397 25.2005 51.8318C25.2005 50.0514 23.5695 49.4298 22.643 49.4298C21.5355 49.4298 20.4079 50.2734 20.4079 51.3271C20.4079 51.9948 20.7705 52.3969 21.294 52.3969C22.5458 52.3969 22.4697 51.332 22.2202 50.661C22.9993 51.0113 23.4521 51.6366 23.3277 52.2959C23.7687 52.3565 24.1886 52.5656 24.576 53.0025C24.2712 53.3873 23.8994 53.6784 23.3277 53.6888C23.5773 54.7118 22.8925 55.1444 22.2202 55.3843C22.4329 54.6335 22.5724 53.7694 21.294 53.7694C20.3616 53.7694 19.6278 53.608 19.1998 53.0024L19.0992 56.9991C19.0453 58.1976 20.7032 58.1634 21.7569 57.8066C21.3593 59.187 20.5436 59.9333 18.656 59.7443C19.1143 59.936 19.6025 60.3671 19.6025 61.1977C19.6022 62.3215 18.6905 63.5664 18.092 63.9345L17.7928 52.235L17.7929 52.2351Z" fill="#FFEC2D"/>
<path d="M18.092 137.208C18.092 137.208 16.6697 138.403 16.1866 137.803C15.4096 136.839 18.5754 132.036 18.5754 130.345C18.5754 127.568 16.7229 126.813 14.4354 126.417C12.9005 126.151 10.401 126.528 10.401 126.528C10.8717 127.161 11.1777 127.347 11.9707 127.397C11.0879 127.856 10.1889 128.851 10.1889 130.399C10.1889 132.788 11.1721 133.772 11.1721 136.465C11.1721 137.959 9.94727 139.86 9.94727 139.86C12.1124 139.643 13.1854 137.639 12.5749 136.037C12.9194 135.987 13.2323 136.065 13.501 136.319C13.6594 135.875 13.4093 135.36 13.0744 134.916C13.3442 134.772 13.5423 134.858 13.9721 134.947C13.9313 134.489 13.6572 134.003 12.9864 133.546C14.9328 134.051 16.1304 132.694 16.1304 131.274C16.1304 130.202 15.3787 129.433 14.6439 129.433C14.4065 129.433 14.0577 129.531 13.861 129.677C13.7222 129.382 13.7936 128.987 13.9365 128.692C13.398 128.834 13.0562 129.154 13.2995 129.82C12.8858 129.858 12.5568 129.997 12.333 130.264C12.5598 130.554 12.9039 130.721 13.2995 130.708C12.9983 131.329 13.3339 131.677 13.8231 131.959C13.8231 131.959 13.512 130.708 14.3063 130.708C14.6634 130.708 14.9889 130.824 14.9889 131.351C14.9889 131.809 14.5882 132.444 13.6619 132.403C12.7356 132.363 11.9848 131.765 11.9848 130.286C11.9848 128.922 13.085 128.244 14.5348 128.2C15.8421 128.16 16.8288 128.868 16.8288 130.216C16.8288 132.011 14.2376 136.103 14.2376 137.702C14.2376 138.903 15.3169 139.572 16.3728 139.572C17.7421 139.572 18.8974 138.217 18.8974 138.217L18.093 137.208L18.092 137.208Z" fill="#FFEC2D"/>
<path d="M18.3909 104.763C18.3909 101.763 15.6976 100.221 13.5812 100.221C10.7299 100.221 9.21167 101.926 9.21167 104.158C9.21167 105.423 9.44344 106.217 10.0267 107.428L16.5614 120.992C16.7897 121.464 16.8634 122.001 16.8634 122.789C16.8634 124.005 15.6839 124.999 14.447 125.029C13.3196 125.057 12.0912 123.978 12.0912 122.748C12.0912 121.254 12.8661 120.588 13.6617 120.588C14.6409 120.588 15.031 120.991 15.031 121.679C15.031 122.158 14.7997 122.365 14.4672 122.365C13.6274 122.365 13.8632 121.234 13.8632 121.234C13.4461 121.326 13.1033 121.752 13.2993 122.284C12.9826 122.354 12.6967 122.524 12.4838 122.769C12.7089 122.987 12.9672 123.155 13.2993 123.213C13.1026 123.862 13.3654 124.179 13.9336 124.313C13.8189 124.063 13.8151 123.833 13.8531 123.616C14.7475 123.871 16.1184 123.466 16.1184 121.921C16.1184 120.387 15.0537 119.095 13.0576 119.418C13.5324 119.191 13.7739 118.726 13.8228 118.207C13.4602 118.348 13.0576 118.368 13.0576 118.368C13.291 117.957 13.6151 117.602 13.6012 116.794C13.2312 116.962 12.8874 117.274 12.4132 117.076C13.1576 115.612 12.243 113.597 9.9163 113.12C10.7679 114.118 11.1848 115.196 11.1848 116.269C11.1848 119.746 10.2184 120.331 10.2184 122.748C10.2184 123.76 10.7383 124.852 11.7688 125.595V125.554C11.0877 125.737 10.6514 126.072 10.4006 126.528C11.9568 126.969 14.219 126.961 15.4334 126.483C16.8297 126.321 17.8044 125.25 18.0915 124.706C18.3786 124.163 18.9365 122.197 18.0915 120.427L11.4466 106.338C11.1583 105.722 10.9834 105.068 10.9834 104.36C10.9834 102.58 12.6143 101.958 13.5408 101.958C14.6483 101.958 15.7759 102.802 15.7759 103.855C15.7759 104.523 15.4133 104.925 14.8898 104.925C13.6381 104.925 13.7141 103.86 13.9637 103.189C13.1846 103.539 12.7317 104.165 12.8562 104.824C12.4151 104.885 11.9953 105.094 11.6078 105.531C11.9127 105.915 12.2844 106.207 12.8562 106.217C12.6065 107.24 13.2913 107.673 13.9637 107.912C13.751 107.162 13.6114 106.298 14.8898 106.298C15.8222 106.298 16.556 106.136 16.984 105.531L17.0847 109.527C17.1386 110.726 15.4807 110.692 14.4269 110.335C14.8246 111.715 15.6402 112.462 17.5278 112.273C17.0696 112.464 16.5813 112.895 16.5813 113.726C16.5816 114.85 17.4933 116.095 18.0918 116.463L18.3911 104.763L18.3909 104.763Z" fill="#FFEC2D"/>
<path d="M18.3909 95.7649C18.3909 98.7649 15.6976 100.307 13.5812 100.307C10.7299 100.307 9.21167 98.6019 9.21167 96.3702C9.21167 95.1051 9.44344 94.3114 10.0267 93.1006L16.5614 79.536C16.7897 79.0641 16.8634 78.5269 16.8634 77.7395C16.8634 76.5234 15.6839 75.5294 14.447 75.499C13.3196 75.4708 12.0912 76.5501 12.0912 77.7799C12.0912 79.2737 12.8661 79.9397 13.6617 79.9397C14.6409 79.9397 15.031 79.5371 15.031 78.8497C15.031 78.3706 14.7997 78.1634 14.4672 78.1634C13.6274 78.1634 13.8632 79.2938 13.8632 79.2938C13.4461 79.2025 13.1033 78.7763 13.2993 78.2441C12.9826 78.1741 12.6967 78.0043 12.4838 77.7597C12.7089 77.5414 12.9672 77.3729 13.2993 77.3157C13.1026 76.6662 13.3654 76.3491 13.9336 76.2156C13.8189 76.4653 13.8151 76.6951 13.8531 76.9119C14.7475 76.6575 16.1184 77.0623 16.1184 78.6074C16.1184 80.1414 15.0537 81.4332 13.0576 81.1104C13.5324 81.3374 13.7739 81.802 13.8228 82.3215C13.4602 82.1803 13.0576 82.1601 13.0576 82.1601C13.291 82.5716 13.6151 82.9263 13.6012 83.7344C13.2312 83.5661 12.8874 83.2546 12.4132 83.4517C13.1576 84.9166 12.243 86.9315 9.9163 87.4082C10.7679 86.41 11.1848 85.3322 11.1848 84.2592C11.1848 80.7818 10.2184 80.1974 10.2184 77.7798C10.2184 76.7682 10.7383 75.676 11.7688 74.9336V74.974C11.0877 74.7915 10.6514 74.4561 10.4006 74.0005C11.9568 73.5591 14.219 73.5673 15.4334 74.0452C16.8297 74.2069 17.8044 75.278 18.0915 75.8217C18.3786 76.3655 18.9365 78.3308 18.0915 80.1007L11.4466 94.19C11.1583 94.8064 10.9834 95.4603 10.9834 96.1682C10.9834 97.9486 12.6143 98.5702 13.5408 98.5702C14.6483 98.5702 15.7759 97.7266 15.7759 96.6729C15.7759 96.0052 15.4133 95.6031 14.8898 95.6031C13.6381 95.6031 13.7141 96.668 13.9637 97.339C13.1846 96.9887 12.7317 96.3634 12.8562 95.7041C12.4151 95.6435 11.9953 95.4344 11.6078 94.9975C11.9127 94.6127 12.2844 94.3216 12.8562 94.3112C12.6065 93.2883 13.2913 92.8557 13.9637 92.6157C13.751 93.3666 13.6114 94.2306 14.8898 94.2306C15.8222 94.2306 16.556 94.392 16.984 94.9977L17.0847 91.0009C17.1386 89.8024 15.4807 89.8366 14.4269 90.1934C14.8246 88.813 15.6402 88.0667 17.5278 88.2557C17.0696 88.064 16.5813 87.6329 16.5813 86.8023C16.5816 85.6785 17.4933 84.4336 18.0918 84.0655L18.3911 95.765L18.3909 95.7649Z" fill="#FFEC2D"/>
<path d="M18.0918 137.208C18.0918 137.208 19.5141 138.403 19.9972 137.803C20.7742 136.839 17.6085 132.036 17.6085 130.345C17.6085 127.568 19.461 126.813 21.7485 126.417C23.2834 126.151 25.7828 126.528 25.7828 126.528C25.3122 127.161 25.0061 127.347 24.2131 127.397C25.0959 127.856 25.9949 128.851 25.9949 130.399C25.9949 132.788 25.0117 133.772 25.0117 136.465C25.0117 137.959 26.2366 139.86 26.2366 139.86C24.0715 139.643 22.9985 137.639 23.609 136.037C23.2644 135.987 22.9516 136.065 22.6828 136.319C22.5244 135.875 22.7746 135.36 23.1095 134.916C22.8397 134.772 22.6415 134.858 22.2117 134.947C22.2526 134.489 22.5267 134.003 23.1974 133.546C21.251 134.051 20.0534 132.694 20.0534 131.274C20.0534 130.202 20.8051 129.433 21.5399 129.433C21.7773 129.433 22.1262 129.531 22.3229 129.677C22.4617 129.382 22.3902 128.987 22.2474 128.692C22.7858 128.834 23.1277 129.154 22.8844 129.82C23.298 129.858 23.627 129.997 23.8508 130.264C23.6241 130.554 23.28 130.721 22.8844 130.708C23.1856 131.329 22.8499 131.677 22.3607 131.959C22.3607 131.959 22.6718 130.708 21.8775 130.708C21.5204 130.708 21.195 130.824 21.195 131.351C21.195 131.809 21.5956 132.444 22.5219 132.403C23.4483 132.363 24.1991 131.765 24.1991 130.286C24.1991 128.922 23.0988 128.244 21.649 128.2C20.3417 128.16 19.355 128.868 19.355 130.216C19.355 132.011 21.9462 136.103 21.9462 137.702C21.9462 138.903 20.867 139.572 19.811 139.572C18.4417 139.572 17.2864 138.217 17.2864 138.217L18.0908 137.208L18.0918 137.208Z" fill="#FFEC2D"/>
<path d="M17.7929 104.763C17.7929 101.763 20.4862 100.221 22.6026 100.221C25.454 100.221 26.9722 101.926 26.9722 104.158C26.9722 105.423 26.7404 106.217 26.1571 107.428L19.6225 120.992C19.3941 121.464 19.3204 122.001 19.3204 122.789C19.3204 124.005 20.5 124.999 21.7368 125.029C22.8643 125.057 24.0927 123.978 24.0927 122.748C24.0927 121.254 23.3178 120.588 22.5221 120.588C21.5429 120.588 21.1528 120.991 21.1528 121.679C21.1528 122.158 21.3841 122.365 21.7167 122.365C22.5564 122.365 22.3207 121.234 22.3207 121.234C22.7377 121.326 23.0805 121.752 22.8846 122.284C23.2012 122.354 23.4871 122.524 23.7 122.769C23.4749 122.987 23.2167 123.155 22.8846 123.213C23.0812 123.862 22.8184 124.179 22.2502 124.313C22.3649 124.063 22.3688 123.833 22.3307 123.616C21.4364 123.871 20.0655 123.466 20.0655 121.921C20.0655 120.387 21.1302 119.095 23.1262 119.418C22.6515 119.191 22.4099 118.726 22.3611 118.207C22.7237 118.348 23.1262 118.368 23.1262 118.368C22.8928 117.957 22.5687 117.602 22.5826 116.794C22.9526 116.962 23.2964 117.274 23.7706 117.076C23.0262 115.612 23.9408 113.597 26.2675 113.12C25.4159 114.118 24.999 115.196 24.999 116.269C24.999 119.746 25.9655 120.331 25.9655 122.748C25.9655 123.76 25.4455 124.852 24.415 125.595V125.554C25.0961 125.737 25.5324 126.072 25.7833 126.528C24.2271 126.969 21.9649 126.961 20.7504 126.483C19.3542 126.321 18.3794 125.25 18.0923 124.706C17.8052 124.163 17.2474 122.197 18.0923 120.427L24.7372 106.338C25.0255 105.722 25.2005 105.068 25.2005 104.36C25.2005 102.58 23.5695 101.958 22.643 101.958C21.5355 101.958 20.4079 102.802 20.4079 103.855C20.4079 104.523 20.7705 104.925 21.294 104.925C22.5458 104.925 22.4697 103.86 22.2202 103.189C22.9993 103.539 23.4521 104.165 23.3277 104.824C23.7687 104.885 24.1886 105.094 24.576 105.531C24.2712 105.915 23.8994 106.207 23.3277 106.217C23.5773 107.24 22.8925 107.673 22.2202 107.912C22.4329 107.162 22.5724 106.298 21.294 106.298C20.3616 106.298 19.6278 106.136 19.1998 105.531L19.0992 109.527C19.0453 110.726 20.7032 110.692 21.7569 110.335C21.3593 111.715 20.5436 112.462 18.656 112.273C19.1143 112.464 19.6025 112.895 19.6025 113.726C19.6022 114.85 18.6905 116.095 18.092 116.463L17.7928 104.763L17.7929 104.763Z" fill="#FFEC2D"/>
<path d="M17.7929 95.7649C17.7929 98.7649 20.4862 100.307 22.6026 100.307C25.454 100.307 26.9722 98.6019 26.9722 96.3702C26.9722 95.1051 26.7404 94.3114 26.1571 93.1006L19.6225 79.536C19.3941 79.0641 19.3204 78.5269 19.3204 77.7395C19.3204 76.5234 20.5 75.5294 21.7368 75.499C22.8643 75.4708 24.0927 76.5501 24.0927 77.7799C24.0927 79.2737 23.3178 79.9397 22.5221 79.9397C21.5429 79.9397 21.1528 79.5371 21.1528 78.8497C21.1528 78.3706 21.3841 78.1634 21.7167 78.1634C22.5564 78.1634 22.3207 79.2938 22.3207 79.2938C22.7377 79.2025 23.0805 78.7763 22.8846 78.2441C23.2012 78.1741 23.4871 78.0043 23.7 77.7597C23.4749 77.5414 23.2167 77.3729 22.8846 77.3157C23.0812 76.6662 22.8184 76.3491 22.2502 76.2156C22.3649 76.4653 22.3688 76.6951 22.3307 76.9119C21.4364 76.6575 20.0655 77.0623 20.0655 78.6074C20.0655 80.1414 21.1302 81.4332 23.1262 81.1104C22.6515 81.3374 22.4099 81.802 22.3611 82.3215C22.7237 82.1803 23.1262 82.1601 23.1262 82.1601C22.8928 82.5716 22.5687 82.9263 22.5826 83.7344C22.9526 83.5661 23.2964 83.2546 23.7706 83.4517C23.0262 84.9166 23.9408 86.9315 26.2675 87.4082C25.4159 86.41 24.999 85.3322 24.999 84.2592C24.999 80.7818 25.9655 80.1974 25.9655 77.7798C25.9655 76.7682 25.4455 75.676 24.415 74.9336V74.974C25.0961 74.7915 25.5324 74.4561 25.7833 74.0005C24.2271 73.5591 21.9649 73.5673 20.7504 74.0452C19.3542 74.2069 18.3794 75.278 18.0923 75.8217C17.8052 76.3655 17.2474 78.3308 18.0923 80.1007L24.7372 94.19C25.0255 94.8064 25.2005 95.4603 25.2005 96.1682C25.2005 97.9486 23.5695 98.5702 22.643 98.5702C21.5355 98.5702 20.4079 97.7266 20.4079 96.6729C20.4079 96.0052 20.7705 95.6031 21.294 95.6031C22.5458 95.6031 22.4697 96.668 22.2202 97.339C22.9993 96.9887 23.4521 96.3634 23.3277 95.7041C23.7687 95.6435 24.1886 95.4344 24.576 94.9975C24.2712 94.6127 23.8994 94.3216 23.3277 94.3112C23.5773 93.2883 22.8925 92.8557 22.2202 92.6157C22.4329 93.3666 22.5724 94.2306 21.294 94.2306C20.3616 94.2306 19.6278 94.392 19.1998 94.9977L19.0992 91.0009C19.0453 89.8024 20.7032 89.8366 21.7569 90.1934C21.3593 88.813 20.5436 88.0667 18.656 88.2557C19.1143 88.064 19.6025 87.6329 19.6025 86.8023C19.6022 85.6785 18.6905 84.4336 18.092 84.0655L17.7928 95.765L17.7929 95.7649Z" fill="#FFEC2D"/>
</g>
</g>
<defs>
<clipPath id="clip0_2106_15530">
<rect width="271.333" height="148" fill="white"/>
</clipPath>
<clipPath id="clip1_2106_15530">
<rect width="296" height="148" fill="white" transform="translate(0.332031)"/>
</clipPath>
</defs>
</svg>
