<svg width="16" height="16" viewBox="0 0 16 16" fill="none" xmlns="http://www.w3.org/2000/svg">
<path d="M10.9667 2C9.80671 2 8.69338 2.54 7.96672 3.39333C7.24005 2.54 6.12672 2 4.96672 2C2.91338 2 1.30005 3.61333 1.30005 5.66667C1.30005 8.18667 3.56672 10.24 7.00005 13.36L7.96672 14.2333L8.93338 13.3533C12.3667 10.24 14.6334 8.18667 14.6334 5.66667C14.6334 3.61333 13.02 2 10.9667 2ZM8.03338 12.3667L7.96672 12.4333L7.90005 12.3667C4.72671 9.49333 2.63338 7.59333 2.63338 5.66667C2.63338 4.33333 3.63338 3.33333 4.96672 3.33333C5.99338 3.33333 6.99338 3.99333 7.34671 4.90667H8.59338C8.94005 3.99333 9.94005 3.33333 10.9667 3.33333C12.3 3.33333 13.3 4.33333 13.3 5.66667C13.3 7.59333 11.2067 9.49333 8.03338 12.3667Z" fill="#448AFF"/>
<path d="M7.99992 14.2333L7.03325 13.3533C3.59992 10.24 1.33325 8.18667 1.33325 5.66667C1.33325 3.61333 2.94659 2 4.99992 2C6.15992 2 7.27325 2.54 7.99992 3.39333C8.72658 2.54 9.83992 2 10.9999 2C13.0533 2 14.6666 3.61333 14.6666 5.66667C14.6666 8.18667 12.3999 10.24 8.96658 13.36L7.99992 14.2333Z" fill="#3F51B5"/>
</svg>
