<svg width="21" height="26" viewBox="0 0 21 26" fill="none" xmlns="http://www.w3.org/2000/svg">
<g clip-path="url(#clip0_2065_2512)">
<path d="M8.62793 25.9999L11.6731 20.368L14.5147 18.5762L20.3396 18.5688L8.62793 25.9999Z" fill="#017F36"/>
<path d="M0 5.65942L3.04017 11.2873V14.7202L0.00355649 20.3371L0 5.65942Z" fill="#5B57A2"/>
<path d="M11.6729 9.23923L14.5216 7.43093L20.3517 7.42529L11.6729 12.9317V9.23923Z" fill="#D90751"/>
<path d="M11.6571 5.62618L11.6733 13.0773L8.62598 11.1382V0L11.6571 5.62618Z" fill="#FAB718"/>
<path d="M20.3521 7.42538L14.5218 7.43102L11.6571 5.62618L8.62598 0L20.3521 7.42538Z" fill="#ED6F26"/>
<path d="M11.6733 20.3682V16.7532L8.62598 14.8508L8.62765 26.0001L11.6733 20.3682Z" fill="#63B22F"/>
<path d="M14.5146 18.5764L3.03996 11.2873L0 5.65942L20.3395 18.5691L14.5146 18.5764Z" fill="#1487C9"/>
<path d="M0.00390625 20.337L8.65098 14.851L5.74386 13.0037L3.04052 14.7201L0.00390625 20.337Z" fill="#984995"/>
</g>
<defs>
<clipPath id="clip0_2065_2512">
<rect width="21" height="26" fill="white"/>
</clipPath>
</defs>
</svg>
