<svg width="28" height="28" viewBox="0 0 28 28" fill="none" xmlns="http://www.w3.org/2000/svg">
<g clip-path="url(#clip0_970_7247)">
<path d="M7.00002 2.33333C5.71669 2.33333 4.67835 3.38333 4.67835 4.66667L4.66669 23.3333C4.66669 24.6167 5.70502 25.6667 6.98835 25.6667H21C22.2834 25.6667 23.3334 24.6167 23.3334 23.3333V9.33333L16.3334 2.33333H7.00002ZM15.1667 10.5V4.08333L21.5834 10.5H15.1667Z" fill="#448AFF"/>
<path d="M8.48811 21.3333V17.0853H10.1441C10.4681 17.0853 10.7501 17.1353 10.9901 17.2353C11.2341 17.3313 11.4221 17.4873 11.5541 17.7033C11.6861 17.9153 11.7521 18.1993 11.7521 18.5553C11.7521 18.8873 11.6781 19.1653 11.5301 19.3893C11.3861 19.6133 11.1881 19.7813 10.9361 19.8933C10.6841 20.0013 10.3981 20.0553 10.0781 20.0553H9.34611V21.3333H8.48811ZM9.34611 19.2873H10.0661C10.3221 19.2873 10.5241 19.2273 10.6721 19.1073C10.8241 18.9833 10.9001 18.7973 10.9001 18.5493C10.9001 18.3293 10.8361 18.1633 10.7081 18.0513C10.5841 17.9393 10.3841 17.8833 10.1081 17.8833H9.34611V19.2873ZM12.408 21.3333V17.0853H14.01C14.454 17.0853 14.832 17.1693 15.144 17.3373C15.46 17.5053 15.7 17.7473 15.864 18.0633C16.032 18.3793 16.116 18.7653 16.116 19.2213C16.116 19.6693 16.034 20.0513 15.87 20.3673C15.71 20.6793 15.474 20.9193 15.162 21.0873C14.85 21.2513 14.468 21.3333 14.016 21.3333H12.408ZM13.266 20.5413H14.01C14.306 20.5413 14.544 20.4853 14.724 20.3733C14.904 20.2613 15.036 20.1053 15.12 19.9053C15.204 19.7053 15.246 19.4753 15.246 19.2153C15.246 18.9633 15.204 18.7373 15.12 18.5373C15.04 18.3333 14.908 18.1733 14.724 18.0573C14.544 17.9413 14.3 17.8833 13.992 17.8833H13.266V20.5413ZM16.7908 21.3333V17.0853H19.8148V17.8833H17.6488V18.9813H19.4788V19.7733H17.6488V21.3333H16.7908Z" fill="white"/>
</g>
<defs>
<clipPath id="clip0_970_7247">
<rect width="28" height="28" fill="white"/>
</clipPath>
</defs>
</svg>
