<svg width="212" height="40" viewBox="0 0 212 40" fill="none" xmlns="http://www.w3.org/2000/svg">
<path fill-rule="evenodd" clip-rule="evenodd" d="M43.0625 19.448C43.0625 28.9001 33.917 36.5625 22.6354 36.5625C11.3539 36.5625 2.20834 28.9001 2.20834 19.448C2.20834 9.99583 11.3539 2.33337 22.6354 2.33337C33.917 2.33337 43.0625 9.99583 43.0625 19.448ZM34.7722 29.7944C32.7952 31.3437 30.3584 32.5328 27.5929 33.1882L32.0019 24.1119L34.7722 29.7944ZM37.8538 26.5868C39.3745 24.4426 40.2254 21.9832 40.2254 19.448C40.2254 16.9121 39.3741 14.4521 37.8527 12.3076L34.2675 19.448L37.8538 26.5868ZM29.7282 19.448L22.6354 33.7569L15.5427 19.448L22.6354 5.13904L29.7282 19.448ZM12.1382 21.7841V30.9308C13.77 31.928 15.6342 32.7038 17.678 33.1882L12.1382 21.7841ZM34.7742 9.10305L32.0025 14.7853L27.5929 5.7077C30.3594 6.36335 32.7969 7.55299 34.7742 9.10305ZM17.678 5.7077L12.1382 17.1118V7.96516C13.77 6.96789 15.6342 6.19208 17.678 5.7077ZM7.88253 11.689C6.07099 13.9727 5.04544 16.6647 5.04544 19.448C5.04544 22.2312 6.07099 24.9232 7.88253 27.2069V11.689Z" fill="white"/>
<path d="M195.305 29.1247V24.2511C195.674 24.2511 195.97 24.1529 196.195 23.9564C196.419 23.7599 196.597 23.5044 196.729 23.19C196.86 22.8755 196.959 22.5284 197.025 22.1484C197.104 21.7554 197.17 21.3755 197.223 21.0087C197.289 20.4191 197.329 19.823 197.342 19.2204C197.368 18.6046 197.381 18.0937 197.381 17.6876C197.394 17.36 197.401 17.0325 197.401 16.705C197.401 16.3644 197.401 16.0237 197.401 15.6831H205.134V24.2511H206.479V29.1247H204.482V26.0394H197.302V29.1247H195.305ZM198.35 24.2511H203.077V17.491H199.28C199.28 18.002 199.273 18.5653 199.26 19.1811C199.247 19.7968 199.221 20.3798 199.181 20.93C199.155 21.2445 199.122 21.5982 199.082 21.9912C199.043 22.3843 198.97 22.7773 198.865 23.1703C198.759 23.5633 198.588 23.9236 198.35 24.2511Z" fill="white"/>
<path d="M189.272 26.1573C188.191 26.1573 187.275 25.9412 186.523 25.5088C185.772 25.0634 185.198 24.4411 184.802 23.6419C184.42 22.8428 184.229 21.9192 184.229 20.8711C184.229 19.8099 184.42 18.8863 184.802 18.1002C185.198 17.3011 185.772 16.6788 186.523 16.2333C187.275 15.7748 188.198 15.5455 189.292 15.5455C190.373 15.5455 191.29 15.7748 192.041 16.2333C192.793 16.6788 193.36 17.3011 193.742 18.1002C194.125 18.8994 194.316 19.8296 194.316 20.8907C194.316 21.9257 194.118 22.8428 193.723 23.6419C193.34 24.4411 192.773 25.0634 192.022 25.5088C191.283 25.9412 190.367 26.1573 189.272 26.1573ZM189.272 24.3494C189.984 24.3494 190.558 24.1922 190.993 23.8778C191.441 23.5633 191.771 23.1441 191.982 22.6201C192.193 22.096 192.298 21.5196 192.298 20.8907C192.298 20.2619 192.193 19.6854 191.982 19.1614C191.771 18.6243 191.441 18.1985 190.993 17.8841C190.558 17.5565 189.984 17.3928 189.272 17.3928C188.574 17.3928 188 17.5565 187.552 17.8841C187.103 18.1985 186.774 18.6177 186.563 19.1418C186.365 19.6658 186.266 20.2488 186.266 20.8907C186.266 21.5196 186.365 22.096 186.563 22.6201C186.774 23.1441 187.103 23.5633 187.552 23.8778C188 24.1922 188.574 24.3494 189.272 24.3494Z" fill="white"/>
<path d="M172.531 26.0591V24.2511C172.808 24.2511 173.046 24.1922 173.243 24.0743C173.454 23.9433 173.639 23.7599 173.797 23.524C173.969 23.262 174.1 22.8952 174.193 22.4236C174.285 21.9519 174.351 21.4606 174.391 20.9497C174.443 20.334 174.476 19.7248 174.489 19.1221C174.516 18.5195 174.536 17.9299 174.549 17.3535C174.575 16.777 174.588 16.2202 174.588 15.6831H182.124V26.0394H180.087V17.491H176.527C176.513 17.9234 176.494 18.3754 176.467 18.847C176.454 19.3186 176.434 19.7903 176.408 20.2619C176.382 20.7204 176.349 21.179 176.309 21.6375C176.283 22.1615 176.21 22.7183 176.091 23.3079C175.986 23.8974 175.782 24.428 175.478 24.8996C175.175 25.3582 174.799 25.6661 174.351 25.8233C173.916 25.9805 173.309 26.0591 172.531 26.0591Z" fill="white"/>
<path d="M166.404 26.1573C165.322 26.1573 164.406 25.9412 163.654 25.5088C162.903 25.0634 162.329 24.4411 161.934 23.6419C161.551 22.8428 161.36 21.9192 161.36 20.8711C161.36 19.8099 161.551 18.8863 161.934 18.1002C162.329 17.3011 162.903 16.6788 163.654 16.2333C164.406 15.7748 165.329 15.5455 166.423 15.5455C167.505 15.5455 168.421 15.7748 169.173 16.2333C169.924 16.6788 170.491 17.3011 170.874 18.1002C171.256 18.8994 171.447 19.8296 171.447 20.8907C171.447 21.9257 171.249 22.8428 170.854 23.6419C170.471 24.4411 169.904 25.0634 169.153 25.5088C168.414 25.9412 167.498 26.1573 166.404 26.1573ZM166.404 24.3494C167.116 24.3494 167.689 24.1922 168.124 23.8778C168.573 23.5633 168.902 23.1441 169.113 22.6201C169.324 22.096 169.43 21.5196 169.43 20.8907C169.43 20.2619 169.324 19.6854 169.113 19.1614C168.902 18.6243 168.573 18.1985 168.124 17.8841C167.689 17.5565 167.116 17.3928 166.404 17.3928C165.705 17.3928 165.131 17.5565 164.683 17.8841C164.235 18.1985 163.905 18.6177 163.694 19.1418C163.496 19.6658 163.397 20.2488 163.397 20.8907C163.397 21.5196 163.496 22.096 163.694 22.6201C163.905 23.1441 164.235 23.5633 164.683 23.8778C165.131 24.1922 165.705 24.3494 166.404 24.3494Z" fill="white"/>
<path d="M148.501 26.0395L153.089 19.1025L148.639 12.1459H151.191L154.415 17.4518L157.639 12.1459H160.131L155.7 19.0435L160.289 26.0395H157.757L154.375 20.7139L150.934 26.0395H148.501Z" fill="white"/>
<path d="M132.009 26.0591V24.2511C132.286 24.2511 132.523 24.1922 132.721 24.0743C132.932 23.9433 133.117 23.7599 133.275 23.524C133.446 23.262 133.578 22.8952 133.67 22.4236C133.763 21.9519 133.829 21.4606 133.868 20.9497C133.921 20.334 133.954 19.7248 133.967 19.1221C133.993 18.5195 134.013 17.9299 134.026 17.3535C134.053 16.777 134.066 16.2202 134.066 15.6831H141.601V26.0394H139.564V17.491H136.004C135.991 17.9234 135.971 18.3754 135.945 18.847C135.932 19.3186 135.912 19.7903 135.885 20.2619C135.859 20.7204 135.826 21.179 135.787 21.6375C135.76 22.1615 135.688 22.7183 135.569 23.3079C135.464 23.8974 135.259 24.428 134.956 24.8996C134.653 25.3582 134.277 25.6661 133.829 25.8233C133.393 25.9805 132.787 26.0591 132.009 26.0591Z" fill="white"/>
<path d="M120.826 26.0591V24.2511C121.102 24.2511 121.34 24.1922 121.538 24.0743C121.749 23.9433 121.933 23.7599 122.091 23.524C122.263 23.262 122.395 22.8952 122.487 22.4236C122.579 21.9519 122.645 21.4606 122.685 20.9497C122.738 20.334 122.77 19.7248 122.784 19.1221C122.81 18.5195 122.83 17.9299 122.843 17.3535C122.869 16.777 122.883 16.2202 122.883 15.6831H130.418V26.0394H128.381V17.491H124.821C124.808 17.9234 124.788 18.3754 124.761 18.847C124.748 19.3186 124.729 19.7903 124.702 20.2619C124.676 20.7204 124.643 21.179 124.603 21.6375C124.577 22.1615 124.504 22.7183 124.386 23.3079C124.28 23.8974 124.076 24.428 123.773 24.8996C123.469 25.3582 123.094 25.6661 122.645 25.8233C122.21 25.9805 121.604 26.0591 120.826 26.0591Z" fill="white"/>
<path d="M113.971 26.1573C113.509 26.1573 113.061 26.0984 112.626 25.9805C112.191 25.8495 111.802 25.6595 111.459 25.4106C111.116 25.1485 110.839 24.8276 110.628 24.4476C110.43 24.0546 110.331 23.5961 110.331 23.072C110.331 22.4432 110.45 21.9257 110.687 21.5196C110.938 21.1003 111.268 20.7794 111.676 20.5567C112.085 20.3208 112.553 20.1571 113.081 20.0654C113.621 19.9606 114.182 19.9082 114.762 19.9082H117.313C117.313 19.3972 117.234 18.9518 117.076 18.5719C116.918 18.1788 116.667 17.8775 116.324 17.6679C115.995 17.4452 115.553 17.3338 114.999 17.3338C114.669 17.3338 114.353 17.3731 114.05 17.4517C113.76 17.5172 113.509 17.6286 113.298 17.7858C113.087 17.943 112.942 18.1526 112.863 18.4146H110.727C110.806 17.9168 110.984 17.491 111.261 17.1373C111.538 16.7705 111.881 16.4692 112.289 16.2333C112.698 15.9975 113.133 15.8272 113.595 15.7224C114.07 15.6045 114.551 15.5455 115.039 15.5455C116.041 15.5455 116.852 15.742 117.471 16.1351C118.104 16.5281 118.566 17.0914 118.856 17.8251C119.146 18.5588 119.291 19.43 119.291 20.4387V26.0394H117.531L117.452 24.7621C117.148 25.142 116.799 25.4368 116.403 25.6464C116.021 25.8429 115.619 25.9739 115.197 26.0394C114.775 26.118 114.366 26.1573 113.971 26.1573ZM114.327 24.4476C114.933 24.4476 115.461 24.3494 115.909 24.1529C116.357 23.9433 116.7 23.6485 116.937 23.2686C117.188 22.8755 117.313 22.4104 117.313 21.8733V21.4606H115.454C115.072 21.4606 114.696 21.4737 114.327 21.4999C113.957 21.513 113.621 21.5654 113.318 21.6571C113.028 21.7357 112.797 21.8733 112.626 22.0698C112.454 22.2663 112.369 22.548 112.369 22.9148C112.369 23.2686 112.461 23.5568 112.645 23.7795C112.83 24.0022 113.074 24.1725 113.377 24.2904C113.681 24.3952 113.997 24.4476 114.327 24.4476Z" fill="white"/>
<path d="M103.714 26.0394V17.491H100.194V15.6831H109.272V17.491H105.751V26.0394H103.714Z" fill="white"/>
<path d="M94.8009 26.1573C93.7065 26.1573 92.7901 25.9346 92.0517 25.4892C91.3265 25.0437 90.7792 24.428 90.4101 23.6419C90.054 22.8428 89.876 21.9257 89.876 20.8907C89.876 19.8689 90.0606 18.9583 90.4298 18.1592C90.8122 17.3469 91.3792 16.7115 92.1308 16.253C92.8955 15.7813 93.8383 15.5455 94.9591 15.5455C95.7238 15.5455 96.4029 15.6765 96.9963 15.9386C97.5896 16.1875 98.0709 16.5609 98.4401 17.0587C98.8225 17.5434 99.073 18.1526 99.1916 18.8863H97.1545C96.9831 18.3491 96.693 17.9627 96.2842 17.7268C95.8887 17.491 95.4206 17.3731 94.88 17.3731C94.1548 17.3731 93.5746 17.5434 93.1395 17.8841C92.7043 18.2247 92.3879 18.6636 92.1901 19.2007C92.0055 19.7378 91.9132 20.3012 91.9132 20.8907C91.9132 21.5065 92.0121 22.0764 92.2099 22.6004C92.4209 23.1244 92.7373 23.5502 93.1592 23.8778C93.5944 24.1922 94.1614 24.3494 94.8602 24.3494C95.3876 24.3494 95.8755 24.238 96.3238 24.0153C96.7721 23.7795 97.0622 23.3865 97.194 22.8362H99.2905C99.1719 23.5961 98.895 24.2249 98.4599 24.7228C98.0247 25.2075 97.4841 25.5678 96.838 25.8036C96.2051 26.0394 95.5261 26.1573 94.8009 26.1573Z" fill="white"/>
<path d="M78.3929 26.0394V15.6831H80.4301V23.0131C80.5224 22.8559 80.6411 22.6856 80.7861 22.5022C80.9312 22.3056 81.0432 22.1484 81.1224 22.0305L85.8889 15.6831H87.7877V26.0394H85.7505V18.7487C85.645 18.919 85.5329 19.0894 85.4143 19.2597C85.2956 19.4169 85.1835 19.561 85.078 19.692L80.3114 26.0394H78.3929Z" fill="white"/>
<path d="M66.3792 29.8125V15.6831H68.3175L68.4164 17.1766C68.7855 16.6264 69.2734 16.2202 69.88 15.9582C70.4865 15.6831 71.1326 15.5455 71.8182 15.5455C72.8467 15.5455 73.6972 15.7813 74.3696 16.253C75.0421 16.7246 75.5432 17.36 75.8728 18.1592C76.2024 18.9583 76.3673 19.8623 76.3673 20.8711C76.3673 21.8799 76.1958 22.7838 75.853 23.583C75.5234 24.3821 75.0091 25.011 74.3103 25.4695C73.6247 25.9281 72.7478 26.1573 71.6798 26.1573C71.1655 26.1573 70.7041 26.1049 70.2953 26.0001C69.8865 25.8953 69.5305 25.7446 69.2273 25.5481C68.924 25.3385 68.6537 25.1158 68.4164 24.88V29.8125H66.3792ZM71.4424 24.3494C72.1545 24.3494 72.7214 24.1922 73.1434 23.8778C73.5653 23.5502 73.8686 23.1244 74.0532 22.6004C74.2378 22.0764 74.3301 21.5065 74.3301 20.8907C74.3301 20.2488 74.2312 19.6658 74.0334 19.1418C73.8488 18.6046 73.539 18.1788 73.1038 17.8644C72.6819 17.5369 72.1149 17.3731 71.4029 17.3731C70.7568 17.3731 70.2096 17.5369 69.7613 17.8644C69.313 18.1788 68.9701 18.6046 68.7328 19.1418C68.5087 19.6789 68.3966 20.2619 68.3966 20.8907C68.3966 21.5327 68.5021 22.1222 68.713 22.6594C68.9372 23.1834 69.2734 23.5961 69.7217 23.8974C70.1832 24.1987 70.7568 24.3494 71.4424 24.3494Z" fill="white"/>
<path d="M54.1042 26.0395V12.1459H56.2007V18.3361H58.2379L62.4902 12.1459H64.8834L60.0377 18.9846L64.9032 26.0395H62.4507L58.3763 20.2423H56.2007V26.0395H54.1042Z" fill="white"/>
</svg>
