<svg width="272" height="148" viewBox="0 0 272 148" fill="none" xmlns="http://www.w3.org/2000/svg">
<g clip-path="url(#clip0_2106_15513)">
<rect width="271.333" height="148" fill="#EBEBEB"/>
<g clip-path="url(#clip1_2106_15513)">
<path d="M-0.332031 0H295.668V148H-0.332031V0Z" fill="#CE1720"/>
<mask id="mask0_2106_15513" style="mask-type:luminance" maskUnits="userSpaceOnUse" x="1" y="0" width="35" height="148">
<path d="M1.23413 0H34.123V99.9822H35.4386V146.684L34.123 148H1.23413V0Z" fill="white"/>
</mask>
<g mask="url(#mask0_2106_15513)">
<path d="M7.15401 0V2.30222H5.67401V4.60444H3.86512V7.23556H2.54957V9.37333H-0.081543V3.94667H2.54957V0.986667H-0.081543V0H7.15401ZM11.4296 12.6622V15.1289H10.114V17.1022H8.79846V15.1289H7.4829V12.6622H6.16735V9.37333H7.4829V6.90667H8.79846V4.93333H10.114V6.90667H11.4296V9.37333H12.7451V12.6622H11.4296ZM8.63401 12.4978H10.2785V9.53778H8.63401V12.4978ZM4.35846 30.0933H5.67401V27.1333H4.35846V30.0933ZM13.2385 30.0933H14.554V27.1333H13.2385V30.0933ZM-0.081543 50.1556H2.22068V52.2933H3.20735V54.9244H4.68735V57.3911H6.66068V54.9244H8.14068V52.2933H9.45623V50.1556H7.4829V47.6889H10.9362V49.3333H13.074V52.1289H14.8829V55.2533H13.5673V57.5556H12.4162V59.6933H11.4296V61.9956H9.94957V63.9689H8.79846V65.7778H7.31846V68.08H5.18068V65.6133H3.70068V63.3111H2.54957V61.8311H-0.081543V58.0489H2.54957V54.76H-0.081543V50.1556Z" fill="white"/>
<path d="M28.2029 0V2.30222H29.6829V4.60444H31.4918V7.23556H32.8074V9.37333H35.4385V3.94667H32.8074V0.986667H35.4385V0H28.2029ZM23.9274 12.6622V15.1289H25.2429V17.1022H26.5585V15.1289H27.874V12.6622H29.1896V9.37333H27.874V6.90667H26.5585V4.93333H25.2429V6.90667H23.9274V9.37333H22.6118V12.6622H23.9274ZM26.7229 12.4978H25.0785V9.53778H26.7229V12.4978ZM30.9985 30.0933H29.6829V27.1333H30.9985V30.0933ZM22.1185 30.0933H20.8029V27.1333H22.1185V30.0933ZM35.4385 50.1556H33.1363V52.2933H32.1496V54.9244H30.6696V57.3911H28.6963V54.9244H27.2163V52.2933H25.9007V50.1556H27.874V47.6889H24.4207V49.3333H22.2829V52.1289H20.474V55.2533H21.7896V57.5556H22.9407V59.6933H23.9274V61.9956H25.4074V63.9689H26.5585V65.7778H28.0385V68.08H30.1763V65.6133H31.6563V63.3111H32.8074V61.8311H35.4385V58.0489H32.8074V54.76H35.4385V50.1556Z" fill="white"/>
<path d="M17.0207 0V5.26222H18.3362V0H23.5985V2.30222H22.2829V4.60444H20.3096V7.23556H18.994V9.37333H16.3629V7.23556H15.0473V4.60444H13.074V2.30222H11.7585V0H17.0207ZM16.6918 45.0578V43.2489H15.7051V41.1111H14.554V38.8089H13.2385V36.5067H11.9229V34.8622H10.4429V32.56H8.46957V34.8622H6.98957V36.5067H5.83846V38.8089H4.5229V41.1111H3.53623V43.2489H2.54957V46.0444H-0.081543V38.8089H2.54957V35.52H-0.081543V30.0933H2.54957V32.3956H4.19401V34.6978H5.83846V32.3956H7.4829V30.0933H8.79846V27.1333H7.4829V24.8311H5.83846V22.5289H4.19401V24.8311H2.54957V27.1333H-0.081543V20.3911H2.54957V17.2667H-0.081543V12.6622H2.54957V14.8H3.86512V17.4311H5.67401V19.5689H7.15401V22.0356H8.30512V24.0089H10.6073V22.0356H11.7585V19.5689H13.2385V17.4311H15.0473V14.8H16.3629V12.6622H18.994V14.8H20.3096V17.4311H22.1185V19.5689H23.5985V22.0356H24.7496V24.0089H27.0518V22.0356H28.2029V19.5689H29.6829V17.4311H31.4918V14.8H32.8073V12.6622H35.4385V17.2667H32.8073V20.3911H35.4385V27.1333H32.8073V24.8311H31.1629V22.5289H29.5185V24.8311H27.874V27.1333H26.5585V30.0933H27.874V32.3956H29.5185V34.6978H31.1629V32.3956H32.8073V30.0933H35.4385V35.52H32.8073V38.8089H35.4385V46.0444H32.8073V43.2489H31.8207V41.1111H30.834V38.8089H29.5185V36.5067H28.3673V34.8622H26.8873V32.56H24.914V34.8622H23.434V36.5067H22.1185V38.8089H20.8029V41.1111H19.6518V43.2489H18.6651V45.0578H16.6918ZM17.0207 17.5956V22.0356H18.3362V17.5956H17.0207ZM16.3629 27.1333V24.8311H14.7185V22.5289H13.074V24.8311H11.4296V27.1333H10.114V30.0933H11.4296V32.3956H13.074V34.6978H14.7185V32.3956H16.3629V30.0933H18.994V32.3956H20.6385V34.6978H22.2829V32.3956H23.9273V30.0933H25.2429V27.1333H23.9273V24.8311H22.2829V22.5289H20.6385V24.8311H18.994V27.1333H16.3629ZM17.0207 34.6978V39.1378H18.3362V34.6978H17.0207Z" fill="white"/>
<path d="M7.15401 148V145.698H5.67401V143.396H3.86512V140.764H2.54957V138.627H-0.081543V144.053H2.54957V147.013H-0.081543V148H7.15401ZM11.4296 135.338V132.871H10.114V130.898H8.79846V132.871H7.4829V135.338H6.16735V138.627H7.4829V141.093H8.79846V143.067H10.114V141.093H11.4296V138.627H12.7451V135.338H11.4296ZM8.63401 135.502H10.2785V138.462H8.63401V135.502ZM4.35846 117.907H5.67401V120.867H4.35846V117.907ZM13.2385 117.907H14.554V120.867H13.2385V117.907ZM-0.081543 97.8444H2.22068V95.7067H3.20735V93.0756H4.68735V90.6089H6.66068V93.0756H8.14068V95.7067H9.45623V97.8444H7.4829V100.311H10.9362V98.6667H13.074V95.8711H14.8829V92.7467H13.5673V90.4444H12.4162V88.3067H11.4296V86.0044H9.94957V84.0311H8.79846V82.2222H7.31846V79.92H5.18068V82.3867H3.70068V84.6889H2.54957V86.1689H-0.081543V89.9511H2.54957V93.24H-0.081543V97.8444Z" fill="white"/>
<path d="M28.2029 148V145.698H29.6829V143.396H31.4918V140.764H32.8074V138.627H35.4385V144.053H32.8074V147.013H35.4385V148H28.2029ZM23.9274 135.338V132.871H25.2429V130.898H26.5585V132.871H27.874V135.338H29.1896V138.627H27.874V141.093H26.5585V143.067H25.2429V141.093H23.9274V138.627H22.6118V135.338H23.9274ZM26.7229 135.502H25.0785V138.462H26.7229V135.502ZM30.9985 117.907H29.6829V120.867H30.9985V117.907ZM22.1185 117.907H20.8029V120.867H22.1185V117.907ZM35.4385 97.8444H33.1363V95.7067H32.1496V93.0756H30.6696V90.6089H28.6963V93.0756H27.2163V95.7067H25.9007V97.8444H27.874V100.311H24.4207V98.6667H22.2829V95.8711H20.474V92.7467H21.7896V90.4444H22.9407V88.3067H23.9274V86.0044H25.4074V84.0311H26.5585V82.2222H28.0385V79.92H30.1763V82.3867H31.6563V84.6889H32.8074V86.1689H35.4385V89.9511H32.8074V93.24H35.4385V97.8444Z" fill="white"/>
<path d="M17.0207 148V142.738H18.3362V148H23.5985V145.698H22.2829V143.396H20.3096V140.764H18.994V138.627H16.3629V140.764H15.0473V143.396H13.074V145.698H11.7585V148H17.0207ZM16.6918 102.942V104.751H15.7051V106.889H14.554V109.191H13.2385V111.493H11.9229V113.138H10.4429V115.44H8.46957V113.138H6.98957V111.493H5.83846V109.191H4.5229V106.889H3.53623V104.751H2.54957V101.956H-0.081543V109.191H2.54957V112.48H-0.081543V117.907H2.54957V115.604H4.19401V113.302H5.83846V115.604H7.4829V117.907H8.79846V120.867H7.4829V123.169H5.83846V125.471H4.19401V123.169H2.54957V120.867H-0.081543V127.609H2.54957V130.733H-0.081543V135.338H2.54957V133.2H3.86512V130.569H5.67401V128.431H7.15401V125.964H8.30512V123.991H10.6073V125.964H11.7585V128.431H13.2385V130.569H15.0473V133.2H16.3629V135.338H18.994V133.2H20.3096V130.569H22.1185V128.431H23.5985V125.964H24.7496V123.991H27.0518V125.964H28.2029V128.431H29.6829V130.569H31.4918V133.2H32.8073V135.338H35.4385V130.733H32.8073V127.609H35.4385V120.867H32.8073V123.169H31.1629V125.471H29.5185V123.169H27.874V120.867H26.5585V117.907H27.874V115.604H29.5185V113.302H31.1629V115.604H32.8073V117.907H35.4385V112.48H32.8073V109.191H35.4385V101.956H32.8073V104.751H31.8207V106.889H30.834V109.191H29.5185V111.493H28.3673V113.138H26.8873V115.44H24.914V113.138H23.434V111.493H22.1185V109.191H20.8029V106.889H19.6518V104.751H18.6651V102.942H16.6918ZM17.0207 130.404V125.964H18.3362V130.404H17.0207ZM16.3629 120.867V123.169H14.7185V125.471H13.074V123.169H11.4296V120.867H10.114V117.907H11.4296V115.604H13.074V113.302H14.7185V115.604H16.3629V117.907H18.994V115.604H20.6385V113.302H22.2829V115.604H23.9273V117.907H25.2429V120.867H23.9273V123.169H22.2829V125.471H20.6385V123.169H18.994V120.867H16.3629ZM17.0207 113.302V108.862H18.3362V113.302H17.0207Z" fill="white"/>
<path d="M-0.081543 67.0933H2.54957V69.3956H3.70068V70.7111H5.01623V73.0133H6.16735V74.9867H5.01623V77.2889H3.70068V78.6044H2.54957V80.9067H-0.081543V67.0933ZM35.4385 67.0933V80.9067H32.8073V78.6044H31.6562V77.2889H30.3407V74.9867H29.1896V73.0133H30.3407V70.7111H31.6562V69.3956H32.8073V67.0933H35.4385ZM11.4296 75.48H12.7451V72.52H11.4296V75.48ZM23.9273 75.48V72.52H22.6118V75.48H23.9273ZM17.0207 65.7778H18.3362V62.8178H17.0207V65.7778ZM17.0207 82.2222V85.1822H18.3362V82.2222H17.0207ZM8.79846 69.8889H11.1007V68.08H12.7451V66.4356H13.5673V64.7911H14.554V62.4889H15.8696V60.1867H16.5273V58.0489H18.8296V60.1867H19.4873V62.4889H20.8029V64.7911H21.7896V66.4356H22.6118V68.08H24.2562V69.8889H26.5585V78.1111H24.2562V79.92H22.6118V81.5644H21.7896V83.2089H20.8029V85.5111H19.4873V87.8133H18.8296V89.9511H16.5273V87.8133H15.8696V85.5111H14.554V83.2089H13.5673V81.5644H12.7451V79.92H11.1007V78.1111H8.79846V69.8889ZM17.0207 71.3689V68.9022H15.7051V67.2578H14.3896V71.3689H15.7051V72.8489H16.5273V75.1511H15.7051V76.6311H14.3896V80.7422H15.7051V79.0978H17.0207V76.6311H18.3362V79.0978H19.6518V80.7422H20.9673V76.6311H19.6518V75.1511H18.8296V72.8489H19.6518V71.3689H20.9673V67.2578H19.6518V68.9022H18.3362V71.3689H17.0207Z" fill="white"/>
</g>
<path d="M34.123 98.6667H295.668V148H34.123V98.6667Z" fill="#007C30"/>
</g>
</g>
<defs>
<clipPath id="clip0_2106_15513">
<rect width="271.333" height="148" fill="white"/>
</clipPath>
<clipPath id="clip1_2106_15513">
<rect width="296" height="148" fill="white" transform="translate(-0.332031)"/>
</clipPath>
</defs>
</svg>
