<svg width="90" height="90" viewBox="0 0 90 90" fill="none" xmlns="http://www.w3.org/2000/svg">
<g clip-path="url(#clip0_2007_28330)">
<path d="M45 7.5C26.3625 7.5 11.25 22.6125 11.25 41.25C11.25 56.8875 21.9 70.0125 36.3375 73.8375L45 82.5L53.6625 73.8375C68.1 70.0125 78.75 56.8875 78.75 41.25C78.75 22.6125 63.6375 7.5 45 7.5ZM45 15C51.225 15 56.25 20.025 56.25 26.25C56.25 32.475 51.225 37.5 45 37.5C38.775 37.5 33.75 32.475 33.75 26.25C33.75 20.025 38.775 15 45 15ZM45 68.625C35.625 68.625 27.3375 63.825 22.5 56.55C22.6125 49.0875 37.5 45 45 45C52.4625 45 67.3875 49.0875 67.5 56.55C62.6625 63.825 54.375 68.625 45 68.625Z" fill="white"/>
</g>
<defs>
<clipPath id="clip0_2007_28330">
<rect width="90" height="90" fill="white"/>
</clipPath>
</defs>
</svg>
