<svg width="80" height="80" viewBox="0 0 80 80" fill="none" xmlns="http://www.w3.org/2000/svg">
<g clip-path="url(#clip0_257_16446)">
<path d="M66.6654 26.6666H56.6654V13.3333H9.9987C6.33203 13.3333 3.33203 16.3333 3.33203 20V56.6666H9.9987C9.9987 62.2 14.4654 66.6666 19.9987 66.6666C25.532 66.6666 29.9987 62.2 29.9987 56.6666H49.9987C49.9987 62.2 54.4654 66.6666 59.9987 66.6666C65.532 66.6666 69.9987 62.2 69.9987 56.6666H76.6654V40L66.6654 26.6666ZM19.9987 61.6666C17.232 61.6666 14.9987 59.4333 14.9987 56.6666C14.9987 53.9 17.232 51.6666 19.9987 51.6666C22.7654 51.6666 24.9987 53.9 24.9987 56.6666C24.9987 59.4333 22.7654 61.6666 19.9987 61.6666ZM64.9987 31.6666L71.532 40H56.6654V31.6666H64.9987ZM59.9987 61.6666C57.232 61.6666 54.9987 59.4333 54.9987 56.6666C54.9987 53.9 57.232 51.6666 59.9987 51.6666C62.7654 51.6666 64.9987 53.9 64.9987 56.6666C64.9987 59.4333 62.7654 61.6666 59.9987 61.6666Z" fill="white"/>
</g>
<defs>
<clipPath id="clip0_257_16446">
<rect width="80" height="80" fill="white"/>
</clipPath>
</defs>
</svg>
